<svg width="296" height="226" viewBox="0 0 296 226" fill="none" xmlns="http://www.w3.org/2000/svg">
<g clip-path="url(#clip0_7_2)">
<path opacity="0.24" d="M295.989 136.961C295.883 150.683 294.078 164.669 288.446 176.921C284.866 184.668 279.81 191.645 273.561 197.461C258.892 211.326 238.533 218.832 218.846 221.186C191.013 224.514 162.856 219.79 134.864 221.255C117.395 222.176 100.048 225.487 82.5583 225.947C65.0683 226.407 46.8955 223.72 32.0471 213.643C26.406 209.768 21.4051 205.037 17.2251 199.619C11.8024 192.63 7.57074 184.795 4.70058 176.429C-6.45824 144.255 2.75785 104.967 26.7324 82.6018C36.192 73.7677 47.462 67.5732 58.6578 61.585C82.0818 49.1062 121.413 -37.8649 213.569 19.2659C231.567 30.454 240.889 53.3646 256.801 67.8641C270.972 80.7715 287.043 93.3984 293.035 112.447C295.513 120.282 296.048 128.693 295.989 136.961Z" fill="#FDB913"/>
<path opacity="0.24" d="M273.561 197.461C258.892 211.326 238.533 218.832 218.846 221.186C191.013 224.514 162.856 219.79 134.864 221.255C117.395 222.175 100.048 225.487 82.5583 225.947C65.0684 226.407 46.8956 223.72 32.0472 213.643C26.4061 209.768 21.4052 205.036 17.2252 199.619C18.6507 199.256 20.0967 198.979 21.5554 198.789C50.9134 194.821 80.6262 194.345 110.249 193.885L191.119 192.61C200.081 192.467 209.085 192.325 218.015 193.192C229.439 194.292 240.656 197.017 252.085 198.043C259.331 198.704 266.42 197.646 273.561 197.461Z" fill="#FDB913"/>
<path d="M222.621 199.175C167.949 196.155 113.154 196.106 58.4779 199.027C49.2407 199.519 39.8393 200.132 31.2108 203.47C35.4457 207.337 41.745 207.644 47.4832 207.739C89.5317 208.416 131.584 208.603 173.639 208.3C176.106 208.3 179.515 207.205 179.028 204.782C178.88 204.052 178.345 203.396 178.388 202.666C178.467 201.317 180.193 200.831 181.564 200.767C185.213 200.579 188.871 200.774 192.479 201.349C193.787 201.566 195.184 201.878 196.047 202.883C196.725 203.666 196.952 204.729 197.444 205.634C199.064 208.591 203.109 209.236 206.444 208.586C209.778 207.935 212.881 206.364 216.253 206.195C219.222 206.041 222.123 206.999 225.024 207.671C234.505 209.861 244.388 209.051 254.08 208.231C264.138 207.38 264.35 200.434 254.324 199.878C243.8 199.312 233.165 199.762 222.621 199.175Z" fill="url(#paint0_linear_7_2)"/>
<path d="M260.067 127.153L255.531 102.396H261.761C261.761 102.396 263.191 122.202 263.879 127.571L260.067 127.153Z" fill="#F5C7C8"/>
<path d="M263.561 125.794C263.561 125.794 264.435 129.655 263.921 131.808C263.408 133.961 261.274 136.469 260.067 136.617C258.86 136.765 258.119 136.172 258.209 135.352C258.299 134.532 261.385 131.618 260.909 130.692C260.433 129.766 259.215 132.581 258.792 131.898C258.368 131.216 258.548 130.158 259.612 128.819C260.676 127.481 259.612 125.614 259.612 125.614C259.612 125.614 262.809 124.196 263.561 125.794Z" fill="#F5C7C8"/>
<path d="M251.402 51.0739C252.699 50.1164 255.335 50.4444 256.642 50.9681C257.586 51.3526 258.428 51.9485 259.104 52.7097C259.781 53.471 260.273 54.3772 260.544 55.3587C260.779 56.2789 260.847 57.2339 260.745 58.1782C260.554 60.2571 259.66 62.3572 257.971 63.595C254.435 66.1765 252.254 63.7802 251.206 60.5586C250.538 58.7365 250.324 56.7795 250.581 54.8561C250.772 53.4014 250.105 52.2535 251.232 51.2114L251.402 51.0739Z" fill="#606161"/>
<path d="M251.402 51.0739C252.699 50.1164 255.335 50.4444 256.642 50.9681C257.586 51.3526 258.428 51.9485 259.104 52.7097C259.781 53.471 260.273 54.3772 260.544 55.3587C260.779 56.2789 260.847 57.2339 260.745 58.1782C260.554 60.2571 259.66 62.3572 257.971 63.595C254.435 66.1765 252.254 63.7802 251.206 60.5586C250.538 58.7365 250.324 56.7795 250.581 54.8561C250.772 53.4014 250.105 52.2535 251.232 51.2114L251.402 51.0739Z" fill="url(#paint1_linear_7_2)"/>
<path d="M243.991 69.2235C249.405 69.2235 253.794 63.7526 253.794 57.0039C253.794 50.2552 249.405 44.7842 243.991 44.7842C238.576 44.7842 234.187 50.2552 234.187 57.0039C234.187 63.7526 238.576 69.2235 243.991 69.2235Z" fill="#606161"/>
<path d="M212.881 90.7163C212.881 90.7163 211.081 87.5424 210.303 87.0716C209.524 86.6008 208.143 85.2942 207.74 85.5904C207.015 86.1194 210.138 88.8913 207.354 88.685C206.915 88.648 204.681 88.685 203.601 89.6954C203.389 89.8964 203.222 90.14 203.111 90.4101C203 90.6802 202.948 90.9707 202.957 91.2626C202.967 91.5544 203.038 91.8409 203.166 92.1032C203.295 92.3656 203.477 92.5978 203.702 92.7847C204.432 93.2819 206.941 93.5147 208.296 93.4723C209.651 93.43 211.24 93.6258 212.161 94.1812" fill="#F5C7C8"/>
<path d="M232.091 77.2483C232.091 77.2483 230.805 81.2898 230.678 83.4745C230.55 85.6592 229.524 94.8372 229.179 95.2868C228.835 95.7365 212.362 90.1398 212.362 90.1398C212.362 90.1398 211.367 91.5416 212.161 94.1812C212.161 94.1812 224.394 105.242 231.8 105.676C239.205 106.11 238.253 88.5845 238.253 88.5845" fill="#F5C7C8"/>
<path d="M246.579 192.584L245.219 195.657C246.024 195.382 249.877 198.477 251.614 198.482C252.755 198.434 253.854 198.033 254.758 197.334L253.667 191.764L251.725 164.188L241.281 165.701L246.579 192.584Z" fill="#F5C7C8"/>
<path d="M226.448 192.356L224.442 194.234C225.289 194.171 228.248 198.128 229.931 198.567C231.05 198.805 232.215 198.69 233.266 198.239L233.594 192.568L235.712 167.044L225.416 168.055L226.448 192.356Z" fill="#F5C7C8"/>
<path d="M247.823 65.1556L248.241 74.032C247.776 74.7092 247.138 75.2501 246.394 75.5988C245.649 75.9475 244.825 76.0914 244.007 76.0157C239.719 75.5396 239.904 74.2701 239.904 74.2701C239.904 74.2701 239.904 67.864 239.735 66.4304" fill="#F5C7C8"/>
<path d="M246.802 68.0438L247.791 66.2559L239.74 67.1499C239.804 67.6788 239.846 68.9696 239.867 70.3238C241.118 70.6947 242.452 70.6751 243.691 70.2677C244.93 69.8602 246.016 69.0844 246.802 68.0438Z" fill="#DBB4AF"/>
<path d="M254.165 129.407C254.165 129.407 255.457 153.825 257.177 173.588C257.177 173.588 233.547 176.989 223.896 173.207C223.896 173.207 225.972 133.829 226.406 128.179L254.165 129.407Z" fill="#606161"/>
<path d="M254.165 129.407C254.165 129.407 255.457 153.825 257.177 173.588C257.177 173.588 233.547 176.989 223.896 173.207C223.896 173.207 225.972 133.829 226.406 128.179L254.165 129.407Z" fill="url(#paint2_linear_7_2)"/>
<path d="M254.17 76.7352C254.17 76.7352 254.128 74.9895 248.077 74.9366C243.668 74.8943 242.128 74.5346 238.994 75.1323C233.277 76.222 232.641 76.5765 231.768 77.317C229.698 79.0997 226.189 127.042 226.189 127.042C226.189 127.042 222.679 132.797 240.852 134.649C247.575 135.337 254.086 130.681 254.086 130.681L254.17 76.7352Z" fill="#FDB913"/>
<path d="M251.169 50.7829C251.169 50.7829 250.814 62.1509 247.506 66.039C244.017 70.1439 242.032 70.6465 237.797 68.9696C234.198 67.536 233.769 57.6915 233.647 54.8561C233.335 47.4979 244.621 41.1606 251.169 50.7829Z" fill="#F5C7C8"/>
<path d="M253.8 84.5219L254.064 130.66L249.888 133.067L249.141 92.3139L253.8 84.5219Z" fill="url(#paint3_linear_7_2)"/>
<path d="M250.285 72.9635L250.364 75.0424C250.37 75.2079 250.328 75.3715 250.244 75.514C250.159 75.6565 250.036 75.7718 249.888 75.8464C249.888 75.8464 246.627 76.952 240.979 77.2483L236.829 76.1903C236.679 76.1281 236.55 76.0251 236.457 75.8932C236.363 75.7614 236.309 75.6058 236.299 75.4444L236.241 74.4129C236.229 74.1914 236.301 73.9736 236.444 73.8036C236.586 73.6336 236.788 73.5243 237.009 73.4977L249.295 72.1065C249.418 72.09 249.543 72.0998 249.661 72.1352C249.78 72.1706 249.89 72.2308 249.983 72.3118C250.077 72.3929 250.152 72.4929 250.204 72.6052C250.256 72.7176 250.284 72.8397 250.285 72.9635Z" fill="#FDB913"/>
<path d="M250.285 72.9635L250.364 75.0424C250.37 75.2079 250.328 75.3715 250.244 75.514C250.159 75.6565 250.036 75.7718 249.888 75.8464C249.888 75.8464 246.627 76.952 240.979 77.2483L236.829 76.1903C236.679 76.1281 236.55 76.0251 236.457 75.8932C236.363 75.7614 236.309 75.6058 236.299 75.4444L236.241 74.4129C236.229 74.1914 236.301 73.9736 236.444 73.8036C236.586 73.6336 236.788 73.5243 237.009 73.4977L249.295 72.1065C249.418 72.09 249.543 72.0998 249.661 72.1352C249.78 72.1706 249.89 72.2308 249.983 72.3118C250.077 72.3929 250.152 72.4929 250.204 72.6052C250.256 72.7176 250.284 72.8397 250.285 72.9635Z" fill="url(#paint4_linear_7_2)"/>
<path d="M249.856 57.9931C249.856 57.9931 250.036 56.2791 251.725 57.0197C253.413 57.7603 251.825 60.7226 251.169 61.5532C250.512 62.3837 249.253 62.1192 249.253 62.1192" fill="#F5C7C8"/>
<path d="M252.524 50.0953L253.196 52.7825H252.095L251.169 48.6829L252.524 50.0953Z" fill="#4EAE93"/>
<path d="M253.943 76.2591C253.943 76.2591 256.431 78.5972 261.01 89.5737C262.878 94.0595 264.44 102.412 264.44 102.412C264.44 102.412 258.056 105.687 254.292 105.687C252.609 95.9269 248.564 92.1446 247.813 87.6429C247.061 83.1412 251.666 75.3915 253.943 76.2591Z" fill="#FDB913"/>
<path d="M221.318 194.779C219.474 195.3 217.845 196.397 216.671 197.911C216.203 198.507 215.918 199.225 215.85 199.979C215.822 200.355 215.897 200.732 216.068 201.069C216.239 201.405 216.498 201.689 216.819 201.889C217.265 202.087 217.75 202.181 218.238 202.164C222.761 202.354 227.291 202.275 231.805 201.926C231.995 201.936 232.184 201.905 232.361 201.835C232.537 201.764 232.696 201.656 232.827 201.518C232.946 201.28 232.991 201.01 232.954 200.746L232.827 197.911C232.849 197.594 232.767 197.278 232.594 197.011C232.091 196.398 231.111 196.911 230.323 196.869C228.735 196.784 228.332 194.811 227.025 194.266C225.532 193.642 222.811 194.324 221.318 194.779Z" fill="#FDB913"/>
<path d="M243.356 194.615C241.509 195.132 239.879 196.23 238.708 197.747C238.238 198.342 237.951 199.06 237.882 199.815C237.855 200.191 237.931 200.567 238.103 200.903C238.275 201.239 238.535 201.521 238.856 201.719C239.302 201.919 239.787 202.015 240.275 202C244.798 202.191 249.329 202.11 253.842 201.756C254.003 201.793 254.17 201.788 254.329 201.741C254.487 201.695 254.63 201.609 254.746 201.491C254.861 201.373 254.944 201.228 254.987 201.068C255.03 200.909 255.031 200.742 254.991 200.582L254.864 197.741C254.886 197.426 254.804 197.112 254.631 196.847C254.128 196.234 253.149 196.747 252.355 196.705C250.767 196.62 250.37 194.647 249.062 194.097C247.543 193.472 244.827 194.155 243.356 194.615Z" fill="#FDB913"/>
<path d="M221.318 194.779C219.474 195.3 217.845 196.397 216.671 197.911C216.203 198.507 215.918 199.225 215.85 199.979C215.822 200.355 215.897 200.732 216.068 201.069C216.239 201.405 216.498 201.689 216.819 201.889C217.265 202.087 217.75 202.181 218.238 202.164C222.761 202.354 227.291 202.275 231.805 201.926C231.995 201.936 232.184 201.905 232.361 201.835C232.537 201.764 232.696 201.656 232.827 201.518C232.946 201.28 232.991 201.01 232.954 200.746L232.827 197.911C232.849 197.594 232.767 197.278 232.594 197.011C232.091 196.398 231.111 196.911 230.323 196.869C228.735 196.784 228.332 194.811 227.025 194.266C225.532 193.642 222.811 194.324 221.318 194.779Z" fill="url(#paint5_linear_7_2)"/>
<path d="M243.356 194.615C241.509 195.132 239.879 196.23 238.708 197.747C238.238 198.342 237.951 199.06 237.882 199.815C237.855 200.191 237.931 200.567 238.103 200.903C238.275 201.239 238.535 201.521 238.856 201.719C239.302 201.919 239.787 202.015 240.275 202C244.798 202.191 249.329 202.11 253.842 201.756C254.003 201.793 254.17 201.788 254.329 201.741C254.487 201.695 254.63 201.609 254.746 201.491C254.861 201.373 254.944 201.228 254.987 201.068C255.03 200.909 255.031 200.742 254.991 200.582L254.864 197.741C254.886 197.426 254.804 197.112 254.631 196.847C254.128 196.234 253.149 196.747 252.355 196.705C250.767 196.62 250.37 194.647 249.062 194.097C247.543 193.472 244.827 194.155 243.356 194.615Z" fill="url(#paint6_linear_7_2)"/>
<path d="M233.885 48.138C233.711 48.4501 233.547 48.7781 233.382 49.1272C232.936 50.049 232.723 51.0663 232.763 52.0895C232.763 52.5127 233.584 54.5335 233.504 54.6975C234.596 52.5216 236.213 50.6525 238.21 49.2594C238.962 50.9575 240.788 51.8674 242.445 52.6661C244.102 53.4649 245.939 54.4435 246.585 56.1892C247.035 57.3847 246.865 58.8341 247.643 59.8445C249.565 59.5853 249.983 56.4854 251.878 56.1416C252.222 56.0781 252.582 56.1416 252.937 56.0464C253.365 55.9205 253.743 55.6623 254.016 55.3088C254.289 54.9554 254.443 54.5248 254.456 54.0785C254.753 50.0741 249.893 46.3553 246.648 45.017C245.146 44.3812 243.531 44.0535 241.9 44.0535C240.268 44.0535 238.654 44.3812 237.151 45.017C235.733 45.6458 234.577 46.7495 233.885 48.138Z" fill="#606161"/>
<path d="M233.885 48.138C233.711 48.4501 233.547 48.7781 233.382 49.1272C232.936 50.049 232.723 51.0663 232.763 52.0895C232.763 52.5127 233.584 54.5335 233.504 54.6975C234.596 52.5216 236.213 50.6525 238.21 49.2594C238.962 50.9575 240.788 51.8674 242.445 52.6661C244.102 53.4649 245.939 54.4435 246.585 56.1892C247.035 57.3847 246.865 58.8341 247.643 59.8445C249.565 59.5853 249.983 56.4854 251.878 56.1416C252.222 56.0781 252.582 56.1416 252.937 56.0464C253.365 55.9205 253.743 55.6623 254.016 55.3088C254.289 54.9554 254.443 54.5248 254.456 54.0785C254.753 50.0741 249.893 46.3553 246.648 45.017C245.146 44.3812 243.531 44.0535 241.9 44.0535C240.268 44.0535 238.654 44.3812 237.151 45.017C235.733 45.6458 234.577 46.7495 233.885 48.138Z" fill="url(#paint7_linear_7_2)"/>
<path d="M150.009 29.2531H52.6868C48.0149 29.2531 44.2277 33.0378 44.2277 37.7064V195.282C44.2277 199.95 48.0149 203.735 52.6868 203.735H150.009C154.681 203.735 158.468 199.95 158.468 195.282V37.7064C158.468 33.0378 154.681 29.2531 150.009 29.2531Z" fill="#FDB913"/>
<path d="M153.254 29.2531H55.9318C51.2599 29.2531 47.4727 33.0378 47.4727 37.7064V195.282C47.4727 199.95 51.2599 203.735 55.9318 203.735H153.254C157.926 203.735 161.713 199.95 161.713 195.282V37.7064C161.713 33.0378 157.926 29.2531 153.254 29.2531Z" fill="#FDB913"/>
<path d="M153.254 29.2531H55.9318C51.2599 29.2531 47.4727 33.0378 47.4727 37.7064V195.282C47.4727 199.95 51.2599 203.735 55.9318 203.735H153.254C157.926 203.735 161.713 199.95 161.713 195.282V37.7064C161.713 33.0378 157.926 29.2531 153.254 29.2531Z" fill="url(#paint8_linear_7_2)"/>
<path d="M56.2018 129.623L59.1926 37.7275L145.663 39.5525C145.663 39.5525 134.356 134.94 142.339 159.559C150.321 184.178 151.65 193.414 151.65 193.414L58.1975 196.059L56.2018 129.623Z" fill="url(#paint9_linear_7_2)"/>
<path d="M167.197 185.289L72.6648 186.289C72.6648 186.289 62.9458 129.861 61.2571 110.945C59.6003 92.7212 59.2191 37.7275 59.2191 37.7275H149.49C149.49 37.7275 149.718 91.0231 151.316 108.681C153.085 128.163 167.197 185.289 167.197 185.289Z" fill="white"/>
<path d="M209.387 36.7277L202.955 22.1382L202.426 20.9004C202.407 20.8607 202.375 20.8288 202.336 20.8104C202.302 20.7761 202.261 20.7506 202.215 20.7362C202.169 20.7218 202.121 20.7189 202.073 20.7278C202.026 20.7367 201.982 20.7571 201.945 20.7872C201.907 20.8173 201.878 20.8562 201.859 20.9004L194.893 36.7277C194.75 37.0621 194.678 37.4222 194.681 37.7857V190.611H209.599V37.791C209.602 37.4257 209.53 37.0637 209.387 36.7277ZM209.477 190.521H194.766V187.278H209.477V190.521Z" fill="#FDB913"/>
<path d="M207.031 37.791V187.278H197.889V37.7698C197.883 37.4133 197.923 37.0575 198.011 36.7118L202.283 20.8845C202.282 20.8517 202.294 20.8198 202.315 20.7946C202.405 20.6517 202.563 20.6888 202.616 20.8845L202.955 22.1223L206.888 36.7118C206.984 37.0635 207.032 37.4265 207.031 37.791Z" fill="url(#paint10_linear_7_2)"/>
<path d="M197.889 190.521H207.031V201.534C207.031 202.984 206.301 204.153 205.417 204.153H199.483C198.593 204.153 197.894 202.984 197.894 201.534L197.889 190.521Z" fill="url(#paint11_linear_7_2)"/>
<path d="M209.599 37.791C207.275 38.9233 204.725 39.5118 202.14 39.5118C199.555 39.5118 197.004 38.9233 194.681 37.791L199.075 28.1951L202.405 20.9215L205.274 27.6661L209.599 37.791Z" fill="url(#paint12_linear_7_2)"/>
<path d="M205.274 27.6449C203.336 28.5521 201.138 28.7396 199.075 28.1739L202.405 20.9003L205.274 27.6449Z" fill="#FDB913"/>
<path d="M205.274 27.6449C203.156 28.7029 200.509 28.5231 198.72 28.0999L202.066 20.2761L205.274 27.6449Z" fill="url(#paint13_linear_7_2)"/>
<path d="M114.071 56.3373H69.5098C68.6824 56.3373 68.0117 57.0064 68.0117 57.8317C68.0117 58.6571 68.6824 59.3261 69.5098 59.3261H114.071C114.898 59.3261 115.569 58.6571 115.569 57.8317C115.569 57.0064 114.898 56.3373 114.071 56.3373Z" fill="#FDB913"/>
<path d="M114.071 61.4897H69.5098C68.6824 61.4897 68.0117 62.1588 68.0117 62.9841C68.0117 63.8094 68.6824 64.4785 69.5098 64.4785H114.071C114.898 64.4785 115.569 63.8094 115.569 62.9841C115.569 62.1588 114.898 61.4897 114.071 61.4897Z" fill="#FDB913"/>
<path d="M114.071 66.642H69.5098C68.6824 66.642 68.0117 67.3111 68.0117 68.1364C68.0117 68.9617 68.6824 69.6308 69.5098 69.6308H114.071C114.898 69.6308 115.569 68.9617 115.569 68.1364C115.569 67.3111 114.898 66.642 114.071 66.642Z" fill="#FDB913"/>
<path d="M114.341 71.7944H84.8028C84.1245 71.7944 83.5747 72.3438 83.5747 73.0216V73.5559C83.5747 74.2337 84.1245 74.7832 84.8028 74.7832H114.341C115.019 74.7832 115.569 74.2337 115.569 73.5559V73.0216C115.569 72.3438 115.019 71.7944 114.341 71.7944Z" fill="#FDB913"/>
<path d="M114.569 88.9918H70.0074C69.18 88.9918 68.5093 89.6609 68.5093 90.4862C68.5093 91.3115 69.18 91.9806 70.0074 91.9806H114.569C115.396 91.9806 116.067 91.3115 116.067 90.4862C116.067 89.6609 115.396 88.9918 114.569 88.9918Z" fill="#FDB913"/>
<path d="M114.569 94.1442H70.0074C69.18 94.1442 68.5093 94.8132 68.5093 95.6386C68.5093 96.4639 69.18 97.133 70.0074 97.133H114.569C115.396 97.133 116.067 96.4639 116.067 95.6386C116.067 94.8132 115.396 94.1442 114.569 94.1442Z" fill="#FDB913"/>
<path d="M114.569 99.2913H70.0074C69.18 99.2913 68.5093 99.9603 68.5093 100.786C68.5093 101.611 69.18 102.28 70.0074 102.28H114.569C115.396 102.28 116.067 101.611 116.067 100.786C116.067 99.9603 115.396 99.2913 114.569 99.2913Z" fill="#FDB913"/>
<path d="M114.838 104.444H85.3004C84.6221 104.444 84.0723 104.993 84.0723 105.671V106.205C84.0723 106.883 84.6221 107.432 85.3004 107.432H114.838C115.517 107.432 116.067 106.883 116.067 106.205V105.671C116.067 104.993 115.517 104.444 114.838 104.444Z" fill="#FDB913"/>
<path d="M117.962 123.138H73.3953C72.9824 123.126 72.5869 122.969 72.2775 122.696C71.9681 122.422 71.7642 122.049 71.7013 121.641C71.669 121.455 71.6786 121.263 71.7295 121.081C71.7803 120.899 71.8711 120.73 71.9953 120.587C72.1195 120.445 72.2739 120.331 72.4474 120.255C72.6208 120.18 72.809 120.143 72.9982 120.149H117.559C117.973 120.159 118.369 120.314 118.68 120.587C118.991 120.86 119.195 121.233 119.259 121.641C119.291 121.828 119.281 122.019 119.23 122.202C119.18 122.384 119.089 122.553 118.965 122.696C118.841 122.839 118.686 122.953 118.513 123.03C118.339 123.106 118.151 123.143 117.962 123.138Z" fill="#FDB913"/>
<path d="M118.65 128.28H74.0833C73.6646 128.27 73.2628 128.112 72.9497 127.834C72.6365 127.556 72.4324 127.176 72.3735 126.762C72.3422 126.575 72.3526 126.384 72.4038 126.203C72.455 126.021 72.5459 125.853 72.6698 125.71C72.7938 125.567 72.9478 125.454 73.1208 125.378C73.2938 125.302 73.4815 125.265 73.6705 125.27H118.237C118.649 125.282 119.044 125.438 119.353 125.71C119.663 125.983 119.867 126.355 119.931 126.762C119.966 126.949 119.96 127.141 119.911 127.325C119.863 127.509 119.774 127.68 119.652 127.825C119.529 127.971 119.375 128.087 119.202 128.165C119.029 128.244 118.84 128.283 118.65 128.28Z" fill="#FDB913"/>
<path d="M119.338 133.422H74.7715C74.3594 133.409 73.9645 133.254 73.6552 132.981C73.3459 132.709 73.1416 132.337 73.0776 131.93C73.0454 131.743 73.055 131.552 73.1059 131.369C73.1567 131.187 73.2474 131.018 73.3715 130.875C73.4955 130.731 73.6499 130.618 73.8233 130.541C73.9968 130.465 74.185 130.428 74.3745 130.433H118.957C119.37 130.445 119.765 130.602 120.075 130.875C120.384 131.149 120.588 131.522 120.651 131.93C120.682 132.118 120.672 132.31 120.62 132.493C120.568 132.676 120.475 132.845 120.349 132.988C120.224 133.131 120.068 133.244 119.893 133.319C119.718 133.394 119.528 133.429 119.338 133.422Z" fill="#FDB913"/>
<path d="M120.296 138.563H90.758C90.4198 138.554 90.0955 138.427 89.8412 138.204C89.587 137.98 89.4188 137.675 89.3658 137.341L89.2917 136.812C89.267 136.66 89.2759 136.504 89.318 136.355C89.36 136.207 89.434 136.069 89.5349 135.952C89.6358 135.835 89.7611 135.742 89.902 135.678C90.0429 135.615 90.1959 135.583 90.3504 135.585H119.894C120.233 135.595 120.558 135.723 120.812 135.947C121.066 136.171 121.234 136.477 121.286 136.812L121.355 137.341C121.379 137.493 121.369 137.649 121.327 137.797C121.284 137.945 121.21 138.082 121.109 138.198C121.009 138.314 120.884 138.407 120.743 138.47C120.603 138.534 120.45 138.565 120.296 138.563Z" fill="#FDB913"/>
<path d="M123.372 155.856H78.8053C78.3819 155.838 77.9767 155.679 77.6536 155.405C77.3306 155.131 77.1081 154.758 77.0214 154.343C76.9756 154.161 76.9725 153.971 77.0125 153.788C77.0525 153.604 77.1344 153.433 77.2517 153.286C77.3691 153.14 77.5188 153.022 77.6892 152.943C77.8595 152.864 78.0458 152.825 78.2336 152.83H122.8C123.223 152.848 123.629 153.007 123.952 153.281C124.275 153.555 124.497 153.929 124.584 154.343C124.631 154.525 124.635 154.716 124.595 154.9C124.556 155.083 124.474 155.256 124.356 155.402C124.239 155.549 124.089 155.667 123.918 155.745C123.747 155.824 123.56 155.862 123.372 155.856Z" fill="#FDB913"/>
<path d="M124.362 161.051H79.7846C79.3605 161.032 78.9547 160.873 78.6315 160.598C78.3084 160.323 78.0863 159.948 78.0007 159.533C77.9539 159.351 77.9499 159.161 77.9892 158.977C78.0284 158.794 78.1097 158.622 78.2267 158.475C78.3438 158.329 78.4933 158.211 78.6635 158.132C78.8337 158.053 79.02 158.015 79.2076 158.02H123.774C124.198 158.037 124.603 158.195 124.927 158.469C125.25 158.743 125.472 159.118 125.558 159.533C125.606 159.714 125.61 159.903 125.572 160.087C125.534 160.27 125.454 160.442 125.338 160.589C125.222 160.736 125.073 160.854 124.904 160.934C124.735 161.015 124.549 161.054 124.362 161.051Z" fill="#FDB913"/>
<path d="M125.346 166.267H80.7798C80.3564 166.248 79.9512 166.09 79.6281 165.816C79.305 165.542 79.0825 165.168 78.9958 164.754C78.9538 164.573 78.9537 164.385 78.9954 164.205C79.0372 164.024 79.1197 163.855 79.2366 163.711C79.3536 163.567 79.5019 163.452 79.6703 163.374C79.8386 163.296 80.0226 163.258 80.2081 163.262H124.78C125.204 163.281 125.609 163.441 125.932 163.716C126.255 163.991 126.477 164.365 126.564 164.78C126.605 164.961 126.604 165.148 126.562 165.329C126.519 165.509 126.436 165.677 126.319 165.821C126.201 165.964 126.053 166.079 125.884 166.156C125.716 166.233 125.532 166.271 125.346 166.267Z" fill="#FDB913"/>
<path d="M126.601 171.482H97.0627C96.7159 171.464 96.3847 171.332 96.1199 171.108C95.855 170.883 95.6712 170.578 95.5964 170.239L95.4958 169.71C95.4569 169.561 95.4535 169.405 95.4858 169.254C95.5182 169.103 95.5854 168.962 95.6821 168.841C95.7788 168.721 95.9023 168.625 96.0428 168.561C96.1832 168.497 96.3367 168.467 96.491 168.472H126.029C126.374 168.492 126.704 168.623 126.967 168.846C127.231 169.07 127.415 169.373 127.49 169.71L127.596 170.239C127.635 170.389 127.638 170.545 127.606 170.696C127.573 170.848 127.506 170.989 127.41 171.11C127.313 171.23 127.19 171.327 127.049 171.391C126.909 171.456 126.755 171.487 126.601 171.482Z" fill="#FDB913"/>
<path d="M136.595 78.2428H127.712C126.01 78.2414 124.378 77.5649 123.174 76.3618C121.97 75.1588 121.293 73.5275 121.291 71.8261V62.225C121.293 60.5236 121.97 58.8923 123.174 57.6893C124.378 56.4862 126.01 55.8098 127.712 55.8083H136.595C138.298 55.8098 139.93 56.4862 141.134 57.6893C142.338 58.8923 143.015 60.5236 143.016 62.225V71.8473C143.009 73.545 142.33 75.1709 141.126 76.3693C139.923 77.5678 138.294 78.2414 136.595 78.2428ZM127.712 57.554C126.479 57.5554 125.296 58.0458 124.424 58.9175C123.552 59.7892 123.061 60.9711 123.059 62.2038V71.8261C123.061 73.0589 123.552 74.2408 124.424 75.1125C125.296 75.9842 126.479 76.4746 127.712 76.476H136.595C137.828 76.4746 139.01 75.984 139.882 75.1122C140.753 74.2403 141.243 73.0584 141.243 71.8261V62.225C141.243 60.9927 140.753 59.8108 139.882 58.9389C139.01 58.0671 137.828 57.5766 136.595 57.5752L127.712 57.554Z" fill="#FDB913"/>
<path d="M138.93 111.278H130.073C128.42 111.28 126.83 110.644 125.635 109.502C124.44 108.361 123.731 106.803 123.658 105.152L123.234 95.7259C123.195 94.8595 123.332 93.9942 123.636 93.1822C123.941 92.3701 124.407 91.6282 125.007 91.0013C125.607 90.3744 126.327 89.8754 127.125 89.5346C127.923 89.1938 128.782 89.0181 129.65 89.0183H138.517C140.165 89.025 141.747 89.6656 142.935 90.8073C144.122 91.9489 144.825 93.5039 144.895 95.1493L145.324 104.571C145.364 105.437 145.227 106.302 144.922 107.114C144.617 107.926 144.151 108.668 143.551 109.295C142.952 109.922 142.231 110.421 141.433 110.762C140.635 111.103 139.776 111.278 138.908 111.278H138.93ZM129.634 90.7904C129.005 90.7898 128.383 90.9165 127.805 91.1631C127.227 91.4096 126.705 91.7708 126.27 92.2247C125.836 92.6787 125.498 93.216 125.277 93.8041C125.057 94.3923 124.958 95.019 124.986 95.6465L125.415 105.073C125.467 106.268 125.979 107.396 126.844 108.222C127.71 109.049 128.861 109.509 130.058 109.506H138.93C139.558 109.507 140.18 109.38 140.758 109.133C141.337 108.887 141.859 108.526 142.293 108.072C142.728 107.618 143.065 107.081 143.286 106.492C143.507 105.904 143.606 105.277 143.577 104.65L143.149 95.2286C143.095 94.0329 142.582 92.9039 141.716 92.077C140.85 91.2502 139.698 90.7892 138.501 90.7904H129.634Z" fill="#FDB913"/>
<path d="M132.879 141.833C131.265 141.833 129.71 141.226 128.525 140.132C127.34 139.038 126.611 137.537 126.484 135.929L125.727 126.529C125.658 125.664 125.765 124.795 126.041 123.973C126.317 123.151 126.758 122.393 127.335 121.745C127.912 121.098 128.615 120.574 129.4 120.205C130.186 119.836 131.038 119.63 131.905 119.599L140.772 119.292C142.418 119.247 144.02 119.829 145.251 120.922C146.482 122.015 147.25 123.536 147.399 125.175L148.156 134.575C148.225 135.439 148.117 136.308 147.841 137.13C147.564 137.952 147.124 138.709 146.547 139.357C145.97 140.004 145.268 140.528 144.482 140.897C143.697 141.266 142.846 141.473 141.979 141.505L133.112 141.811L132.879 141.833ZM141.005 121.059H140.835L131.968 121.366C131.34 121.389 130.724 121.539 130.155 121.806C129.587 122.074 129.078 122.453 128.66 122.922C128.242 123.391 127.924 123.94 127.723 124.535C127.523 125.13 127.446 125.76 127.495 126.386L128.252 135.786C128.352 136.977 128.905 138.084 129.797 138.879C130.69 139.674 131.853 140.097 133.048 140.06L141.915 139.748C142.543 139.727 143.16 139.578 143.729 139.311C144.298 139.045 144.807 138.666 145.225 138.197C145.643 137.728 145.962 137.18 146.162 136.584C146.362 135.989 146.439 135.359 146.388 134.733L145.631 125.333C145.54 124.17 145.014 123.083 144.156 122.29C143.298 121.498 142.173 121.058 141.005 121.059Z" fill="#FDB913"/>
<path d="M139.84 172.985C138.314 172.985 136.837 172.443 135.673 171.455C134.51 170.468 133.735 169.1 133.488 167.594L132.006 158.432C131.859 157.533 131.906 156.613 132.143 155.734C132.38 154.854 132.802 154.035 133.38 153.331C133.959 152.627 134.68 152.054 135.498 151.65C136.315 151.246 137.209 151.021 138.12 150.989L146.907 150.683C148.467 150.642 149.989 151.165 151.194 152.155C152.4 153.145 153.208 154.536 153.471 156.073L154.953 165.235C155.099 166.134 155.051 167.054 154.814 167.933C154.576 168.812 154.154 169.631 153.576 170.335C152.998 171.039 152.277 171.612 151.46 172.016C150.643 172.42 149.75 172.645 148.839 172.678L140.046 172.979L139.84 172.985ZM147.145 152.449H146.981L138.194 152.756C137.535 152.781 136.89 152.946 136.3 153.239C135.71 153.533 135.189 153.948 134.771 154.458C134.354 154.967 134.05 155.56 133.878 156.196C133.707 156.832 133.673 157.497 133.779 158.147L135.266 167.309C135.459 168.423 136.047 169.43 136.921 170.147C137.796 170.864 138.9 171.242 140.031 171.213L148.818 170.906C149.477 170.884 150.125 170.721 150.716 170.429C151.308 170.138 151.831 169.723 152.249 169.213C152.668 168.704 152.973 168.111 153.145 167.474C153.316 166.837 153.35 166.171 153.243 165.521L151.761 156.353C151.582 155.26 151.019 154.267 150.173 153.551C149.327 152.836 148.253 152.445 147.145 152.449Z" fill="#FDB913"/>
<path d="M127.633 34.2361H84.5435C82.804 34.2361 81.3938 35.6453 81.3938 37.3836V42.3032C81.3938 44.0415 82.804 45.4507 84.5435 45.4507H127.633C129.373 45.4507 130.783 44.0415 130.783 42.3032V37.3836C130.783 35.6453 129.373 34.2361 127.633 34.2361Z" fill="#FDB913"/>
<path d="M127.633 34.2361H84.5435C82.804 34.2361 81.3938 35.6453 81.3938 37.3836V42.3032C81.3938 44.0415 82.804 45.4507 84.5435 45.4507H127.633C129.373 45.4507 130.783 44.0415 130.783 42.3032V37.3836C130.783 35.6453 129.373 34.2361 127.633 34.2361Z" fill="url(#paint14_linear_7_2)"/>
<path d="M132.503 74.196L124.743 66.4569C124.496 66.2103 124.3 65.9175 124.167 65.5953C124.033 65.2731 123.964 64.9277 123.964 64.579C123.964 64.2302 124.033 63.8849 124.167 63.5627C124.3 63.2404 124.496 62.9477 124.743 62.7011C124.99 62.4545 125.282 62.2588 125.605 62.1254C125.927 61.9919 126.273 61.9232 126.622 61.9232C126.971 61.9232 127.317 61.9919 127.639 62.1254C127.961 62.2588 128.254 62.4545 128.501 62.7011L132.207 66.404L144.641 52.0314C145.102 51.4982 145.757 51.17 146.46 51.1189C147.163 51.0678 147.858 51.2981 148.392 51.7589C148.925 52.2198 149.254 52.8736 149.305 53.5765C149.356 54.2793 149.126 54.9737 148.664 55.5068L132.503 74.196Z" fill="#FDB913"/>
<path d="M136.161 106.433L128.406 98.6829C128.159 98.4363 127.963 98.1435 127.83 97.8213C127.696 97.4991 127.627 97.1538 127.627 96.805C127.627 96.4562 127.696 96.1109 127.83 95.7887C127.963 95.4665 128.159 95.1737 128.406 94.9271C128.653 94.6805 128.946 94.4849 129.268 94.3514C129.59 94.2179 129.936 94.1492 130.285 94.1492C130.634 94.1492 130.98 94.2179 131.302 94.3514C131.625 94.4849 131.917 94.6805 132.164 94.9271L135.87 98.63L148.304 84.2574C148.766 83.7242 149.42 83.396 150.123 83.3449C150.826 83.2939 151.521 83.5241 152.055 83.9849C152.588 84.4458 152.917 85.0996 152.968 85.8025C153.019 86.5053 152.789 87.1997 152.327 87.7328L136.161 106.433Z" fill="#FDB913"/>
<path d="M138.824 137.172L131.063 129.407C130.565 128.909 130.285 128.233 130.285 127.529C130.285 126.824 130.565 126.149 131.063 125.651C131.562 125.153 132.238 124.873 132.943 124.873C133.647 124.873 134.323 125.153 134.822 125.651L138.527 129.354L150.962 114.981C151.19 114.717 151.468 114.501 151.779 114.345C152.091 114.189 152.43 114.095 152.778 114.07C153.126 114.044 153.475 114.088 153.806 114.197C154.137 114.307 154.443 114.481 154.707 114.709C154.971 114.937 155.187 115.214 155.344 115.525C155.5 115.837 155.594 116.176 155.619 116.524C155.644 116.871 155.601 117.22 155.491 117.551C155.381 117.882 155.208 118.188 154.98 118.451L138.824 137.172Z" fill="#FDB913"/>
<path d="M145.716 168.081L137.961 160.326C137.463 159.828 137.184 159.153 137.184 158.449C137.185 157.745 137.465 157.07 137.963 156.573C138.462 156.075 139.137 155.796 139.842 155.797C140.546 155.797 141.221 156.077 141.719 156.575L145.425 160.278L157.865 145.911C158.326 145.378 158.98 145.05 159.683 144.999C160.387 144.948 161.082 145.178 161.615 145.639C162.148 146.1 162.477 146.753 162.528 147.456C162.579 148.159 162.349 148.853 161.888 149.387L145.716 168.081Z" fill="#FDB913"/>
<path d="M209.477 187.278H194.771V190.521H209.477V187.278Z" fill="#FDB913"/>
<path d="M209.477 187.278H194.771V190.521H209.477V187.278Z" fill="url(#paint15_linear_7_2)"/>
<path d="M209.599 190.611V201.534C209.599 201.881 209.531 202.224 209.398 202.543C209.265 202.863 209.07 203.153 208.823 203.397C208.577 203.64 208.285 203.833 207.963 203.962C207.642 204.092 207.298 204.157 206.952 204.153H197.302C196.957 204.153 196.616 204.086 196.298 203.955C195.98 203.823 195.691 203.631 195.447 203.387C195.204 203.144 195.011 202.855 194.879 202.537C194.748 202.219 194.681 201.878 194.681 201.534V190.611H209.599Z" fill="#FDB913"/>
<path d="M209.599 190.611V201.534C209.599 201.881 209.531 202.224 209.398 202.543C209.265 202.863 209.07 203.153 208.823 203.397C208.577 203.64 208.285 203.833 207.963 203.962C207.642 204.092 207.298 204.157 206.952 204.153H197.302C196.957 204.153 196.616 204.086 196.298 203.955C195.98 203.823 195.691 203.631 195.447 203.387C195.204 203.144 195.011 202.855 194.879 202.537C194.748 202.219 194.681 201.878 194.681 201.534V190.611H209.599Z" fill="url(#paint16_linear_7_2)"/>
</g>
<defs>
<linearGradient id="paint0_linear_7_2" x1="144.636" y1="250.937" x2="156.588" y2="-59.475" gradientUnits="userSpaceOnUse">
<stop stop-color="#010101" stop-opacity="0"/>
<stop offset="0.95" stop-color="#010101"/>
</linearGradient>
<linearGradient id="paint1_linear_7_2" x1="259.04" y1="57.8396" x2="249.231" y2="57.2569" gradientUnits="userSpaceOnUse">
<stop stop-color="#010101" stop-opacity="0"/>
<stop offset="0.95" stop-color="#010101"/>
</linearGradient>
<linearGradient id="paint2_linear_7_2" x1="245.521" y1="152.275" x2="204.115" y2="148.779" gradientUnits="userSpaceOnUse">
<stop stop-color="#010101" stop-opacity="0"/>
<stop offset="0.95" stop-color="#010101"/>
</linearGradient>
<linearGradient id="paint3_linear_7_2" x1="241.577" y1="120.096" x2="318.348" y2="42.271" gradientUnits="userSpaceOnUse">
<stop stop-color="#010101" stop-opacity="0"/>
<stop offset="0.95" stop-color="#010101"/>
</linearGradient>
<linearGradient id="paint4_linear_7_2" x1="241.138" y1="75.8888" x2="283.404" y2="53.3083" gradientUnits="userSpaceOnUse">
<stop stop-color="#010101" stop-opacity="0"/>
<stop offset="0.95" stop-color="#010101"/>
</linearGradient>
<linearGradient id="paint5_linear_7_2" x1="226.887" y1="208.554" x2="216.922" y2="171.156" gradientUnits="userSpaceOnUse">
<stop stop-color="#010101" stop-opacity="0"/>
<stop offset="0.95" stop-color="#010101"/>
</linearGradient>
<linearGradient id="paint6_linear_7_2" x1="247.485" y1="203.063" x2="237.519" y2="165.665" gradientUnits="userSpaceOnUse">
<stop stop-color="#010101" stop-opacity="0"/>
<stop offset="0.95" stop-color="#010101"/>
</linearGradient>
<linearGradient id="paint7_linear_7_2" x1="250.073" y1="48.7728" x2="235.276" y2="55.9222" gradientUnits="userSpaceOnUse">
<stop stop-color="#010101" stop-opacity="0"/>
<stop offset="0.95" stop-color="#010101"/>
</linearGradient>
<linearGradient id="paint8_linear_7_2" x1="95.4429" y1="-29.4647" x2="113.379" y2="257.022" gradientUnits="userSpaceOnUse">
<stop stop-color="white" stop-opacity="0"/>
<stop offset="0.14" stop-color="white" stop-opacity="0.22"/>
<stop offset="0.3" stop-color="white" stop-opacity="0.45"/>
<stop offset="0.45" stop-color="white" stop-opacity="0.65"/>
<stop offset="0.6" stop-color="white" stop-opacity="0.8"/>
<stop offset="0.73" stop-color="white" stop-opacity="0.91"/>
<stop offset="0.85" stop-color="white" stop-opacity="0.98"/>
<stop offset="0.94" stop-color="white"/>
</linearGradient>
<linearGradient id="paint9_linear_7_2" x1="35.271" y1="192.864" x2="281.858" y2="-79.1695" gradientUnits="userSpaceOnUse">
<stop stop-color="#010101" stop-opacity="0"/>
<stop offset="0.95" stop-color="#010101"/>
</linearGradient>
<linearGradient id="paint10_linear_7_2" x1="271.523" y1="77.2324" x2="-179.238" y2="258.125" gradientUnits="userSpaceOnUse">
<stop stop-color="white" stop-opacity="0"/>
<stop offset="0.14" stop-color="white" stop-opacity="0.22"/>
<stop offset="0.3" stop-color="white" stop-opacity="0.45"/>
<stop offset="0.45" stop-color="white" stop-opacity="0.65"/>
<stop offset="0.6" stop-color="white" stop-opacity="0.8"/>
<stop offset="0.73" stop-color="white" stop-opacity="0.91"/>
<stop offset="0.85" stop-color="white" stop-opacity="0.98"/>
<stop offset="0.94" stop-color="white"/>
</linearGradient>
<linearGradient id="paint11_linear_7_2" x1="216.395" y1="191.468" x2="128.894" y2="226.582" gradientUnits="userSpaceOnUse">
<stop stop-color="white" stop-opacity="0"/>
<stop offset="0.14" stop-color="white" stop-opacity="0.22"/>
<stop offset="0.3" stop-color="white" stop-opacity="0.45"/>
<stop offset="0.45" stop-color="white" stop-opacity="0.65"/>
<stop offset="0.6" stop-color="white" stop-opacity="0.8"/>
<stop offset="0.73" stop-color="white" stop-opacity="0.91"/>
<stop offset="0.85" stop-color="white" stop-opacity="0.98"/>
<stop offset="0.94" stop-color="white"/>
</linearGradient>
<linearGradient id="paint12_linear_7_2" x1="202.685" y1="27.9624" x2="201.358" y2="51.8939" gradientUnits="userSpaceOnUse">
<stop stop-color="white" stop-opacity="0"/>
<stop offset="0.14" stop-color="white" stop-opacity="0.22"/>
<stop offset="0.3" stop-color="white" stop-opacity="0.45"/>
<stop offset="0.45" stop-color="white" stop-opacity="0.65"/>
<stop offset="0.6" stop-color="white" stop-opacity="0.8"/>
<stop offset="0.73" stop-color="white" stop-opacity="0.91"/>
<stop offset="0.85" stop-color="white" stop-opacity="0.98"/>
<stop offset="0.94" stop-color="white"/>
</linearGradient>
<linearGradient id="paint13_linear_7_2" x1="200.758" y1="31.0093" x2="209.059" y2="9.97277" gradientUnits="userSpaceOnUse">
<stop stop-color="#010101" stop-opacity="0"/>
<stop offset="0.95" stop-color="#010101"/>
</linearGradient>
<linearGradient id="paint14_linear_7_2" x1="106.236" y1="47.0906" x2="105.903" y2="30.8083" gradientUnits="userSpaceOnUse">
<stop stop-color="white" stop-opacity="0"/>
<stop offset="0.14" stop-color="white" stop-opacity="0.22"/>
<stop offset="0.3" stop-color="white" stop-opacity="0.45"/>
<stop offset="0.45" stop-color="white" stop-opacity="0.65"/>
<stop offset="0.6" stop-color="white" stop-opacity="0.8"/>
<stop offset="0.73" stop-color="white" stop-opacity="0.91"/>
<stop offset="0.85" stop-color="white" stop-opacity="0.98"/>
<stop offset="0.94" stop-color="white"/>
</linearGradient>
<linearGradient id="paint15_linear_7_2" x1="201.976" y1="184.813" x2="202.975" y2="212.394" gradientUnits="userSpaceOnUse">
<stop stop-color="#010101" stop-opacity="0"/>
<stop offset="0.95" stop-color="#010101"/>
</linearGradient>
<linearGradient id="paint16_linear_7_2" x1="202.108" y1="202.227" x2="202.277" y2="166.499" gradientUnits="userSpaceOnUse">
<stop stop-color="#010101" stop-opacity="0"/>
<stop offset="0.95" stop-color="#010101"/>
</linearGradient>
<clipPath id="clip0_7_2">
<rect width="296" height="226" fill="white"/>
</clipPath>
</defs>
</svg>
