<svg width="245" height="246" viewBox="0 0 245 246" fill="none" xmlns="http://www.w3.org/2000/svg">
<g clip-path="url(#clip0_1_456)">
<path opacity="0.18" d="M238.893 118.33C234.916 136.643 230.936 154.942 226.954 173.228C225.399 180.377 223.831 187.569 221.032 194.309C219.002 199.196 216.328 203.789 213.083 207.966C203.26 220.665 188.491 229.57 172.574 231.742C162.426 233.128 152.055 231.959 141.926 233.473C129.139 235.39 117.333 241.471 104.706 244.237C86.679 248.191 67.594 245.15 50.5234 238.098C37.0798 232.547 14.0746 222.569 5.10581 207.979C3.3303 205.183 2.13572 202.056 1.59351 198.787C-2.86857 169.977 2.65804 134.626 12.175 107.362C30.6608 54.3423 78.8448 12.8589 133.926 2.47212C154.815 -1.46286 176.909 -1.10514 196.746 6.54124C216.583 14.1876 233.877 29.6848 240.959 49.7685C248.678 71.6217 243.821 95.6787 238.893 118.33Z" fill="#FDB913"/>
<path d="M213.083 207.979C203.26 220.678 188.491 229.583 172.574 231.755C162.426 233.141 152.055 231.972 141.926 233.486C129.139 235.402 117.334 241.484 104.706 244.25C86.6791 248.204 67.5941 245.163 50.5235 238.111C37.0799 232.547 14.0747 222.569 5.1059 207.979H213.083Z" fill="#FDB913"/>
<path d="M121.152 211.678C100.626 206.912 79.221 208.867 58.2492 210.841C56.3369 211.02 54.3545 211.224 52.7226 212.233C51.0908 213.243 49.9498 215.331 50.6446 217.126C51.282 218.704 52.9776 219.509 54.584 220.046C64.783 223.502 75.849 222.678 86.6026 222.186C121.445 220.602 156.721 222.952 190.881 215.74C194.362 215.006 198.084 214.016 200.322 211.269C193.916 208.004 186.19 208.899 179.286 210.879C172.383 212.859 165.702 215.868 158.563 216.66C154.554 217.101 153.209 212.885 149.888 211.358C147.338 210.183 145.674 210.477 143.061 211.269C134.959 213.709 129.534 213.626 121.152 211.678Z" fill="url(#paint0_linear_1_456)"/>
<path d="M96.0622 208.049C95.084 208.043 94.1257 207.772 93.2892 207.264C92.4526 206.756 91.7692 206.03 91.3114 205.164C90.8537 204.297 90.6388 203.323 90.6896 202.344C90.7405 201.365 91.0551 200.418 91.6001 199.604C92.1215 198.825 92.8356 198.195 93.6725 197.776C94.5095 197.356 95.4408 197.161 96.3754 197.21C97.31 197.259 98.2161 197.549 99.0051 198.054C99.794 198.558 100.439 199.259 100.877 200.088C101.315 200.917 101.531 201.845 101.504 202.783C101.477 203.72 101.207 204.635 100.722 205.437C100.237 206.239 99.5529 206.901 98.7361 207.359C97.9194 207.817 96.998 208.055 96.0622 208.049ZM94.22 201.387C93.9751 201.753 93.8439 202.183 93.8431 202.624C93.8422 203.064 93.9717 203.496 94.2152 203.862C94.4587 204.229 94.8052 204.516 95.2111 204.686C95.6169 204.855 96.0638 204.901 96.4954 204.816C96.9269 204.731 97.3237 204.52 97.6357 204.21C97.9476 203.899 98.1607 203.503 98.2481 203.071C98.3354 202.639 98.2931 202.191 98.1264 201.783C97.9597 201.375 97.6761 201.026 97.3115 200.78C96.821 200.45 96.2201 200.329 95.6406 200.443C95.0611 200.557 94.5502 200.896 94.22 201.387Z" fill="#2E2E3F"/>
<path d="M56.4071 208.049C55.428 208.046 54.4684 207.775 53.6305 207.268C52.7927 206.76 52.1082 206.034 51.65 205.167C51.1919 204.3 50.9773 203.325 51.0293 202.345C51.0812 201.365 51.3977 200.418 51.945 199.604C52.4664 198.825 53.1805 198.195 54.0174 197.776C54.8544 197.356 55.7857 197.161 56.7203 197.21C57.6549 197.259 58.561 197.549 59.35 198.054C60.1389 198.558 60.7839 199.259 61.2219 200.088C61.6598 200.917 61.8758 201.845 61.8487 202.783C61.8216 203.72 61.5524 204.635 61.0673 205.437C60.5822 206.239 59.8979 206.901 59.0811 207.359C58.2643 207.817 57.3429 208.055 56.4071 208.049ZM54.5712 201.387C54.3256 201.752 54.1937 202.183 54.1924 202.624C54.191 203.065 54.3203 203.497 54.5638 203.864C54.8072 204.232 55.154 204.519 55.5601 204.688C55.9663 204.858 56.4136 204.904 56.8455 204.819C57.2774 204.734 57.6744 204.522 57.9864 204.211C58.2983 203.9 58.5112 203.503 58.598 203.071C58.6848 202.638 58.6417 202.19 58.4741 201.782C58.3065 201.374 58.0219 201.025 57.6565 200.78C57.1669 200.451 56.567 200.33 55.9885 200.443C55.4101 200.557 54.9003 200.896 54.5712 201.387Z" fill="#2E2E3F"/>
<path d="M140.3 95.4552C140.109 96.0862 139.827 96.6864 139.465 97.2374C138.751 98.0888 137.847 98.7605 136.826 99.1985C132.785 101.275 126.627 103.51 123.198 106.513C122.782 106.844 122.437 107.257 122.184 107.726C121.694 108.793 122.184 110.026 122.637 111.099C122.84 111.707 123.201 112.249 123.682 112.671C124.556 113.309 125.767 113.035 126.806 112.728C130.791 111.538 134.71 110.137 138.548 108.531C140.694 107.664 142.779 106.65 144.788 105.497C145.593 105.082 146.293 104.488 146.834 103.759C147.214 103.104 147.467 102.382 147.58 101.632C148.305 97.7608 148.793 93.8482 149.04 89.9168L149.805 80.6926C149.958 78.9167 155.35 72.7013 153.725 71.4812C150.538 69.0921 145.904 75.595 145.177 76.9301C143.124 80.6926 141.097 93.181 140.3 95.4552Z" fill="#FDB913"/>
<path d="M140.3 95.4552C140.109 96.0862 139.827 96.6864 139.465 97.2374C138.751 98.0888 137.847 98.7605 136.826 99.1985C132.785 101.275 126.627 103.51 123.198 106.513C122.782 106.844 122.437 107.257 122.184 107.726C121.694 108.793 122.184 110.026 122.637 111.099C122.84 111.707 123.201 112.249 123.682 112.671C124.556 113.309 125.767 113.035 126.806 112.728C130.791 111.538 134.71 110.137 138.548 108.531C140.694 107.664 142.779 106.65 144.788 105.497C145.593 105.082 146.293 104.488 146.834 103.759C147.214 103.104 147.467 102.382 147.58 101.632C148.305 97.7608 148.793 93.8482 149.04 89.9168L149.805 80.6926C149.958 78.9167 155.35 72.7013 153.725 71.4812C150.538 69.0921 145.904 75.595 145.177 76.9301C143.124 80.6926 141.097 93.181 140.3 95.4552Z" fill="url(#paint1_linear_1_456)"/>
<path d="M189.804 195.363C190.319 196.187 190.587 197.143 190.575 198.116C190.515 198.481 190.379 198.83 190.174 199.138C189.97 199.447 189.703 199.708 189.39 199.906C189.077 200.103 188.726 200.232 188.36 200.283C187.995 200.335 187.622 200.308 187.267 200.205C186.69 199.965 186.165 199.614 185.724 199.17C180.389 194.417 176.163 188.56 172.338 182.491C171.306 180.843 170.305 179.176 169.425 177.445C166.453 171.578 164.892 165.096 164.867 158.517C164.827 158.14 164.92 157.76 165.129 157.444C165.348 157.221 165.631 157.072 165.938 157.016C168.577 156.275 172.689 156.205 175.022 157.929C177.642 159.846 177.011 165.882 176.896 168.629C176.763 169.801 176.88 170.988 177.24 172.111C177.718 173.071 178.366 173.937 179.152 174.666C184.501 180.421 186.356 188.4 189.804 195.363Z" fill="#F3BD8F"/>
<path d="M156.721 182.261C157.274 189.724 156.291 197.22 153.833 204.287C153.684 204.926 153.341 205.504 152.852 205.941C152.521 206.145 152.141 206.258 151.753 206.267C151.364 206.276 150.98 206.181 150.64 205.992C148.912 205.149 148.307 203.309 148.014 201.521C146.731 193.627 146.121 185.639 146.19 177.642C146.19 173.867 146.299 170.271 146.006 166.515C145.712 162.65 145.279 158.792 145.279 154.908C145.207 154.523 145.28 154.125 145.483 153.79C145.643 153.642 145.835 153.531 146.043 153.466C146.251 153.401 146.472 153.383 146.688 153.413C149.454 153.413 154.503 151.816 156.657 153.579C159.494 155.898 154.955 166.093 154.503 169.044C153.744 173.969 155.879 175.432 156.511 180.294C156.593 180.983 156.664 181.622 156.721 182.261Z" fill="#F5BD8D"/>
<path d="M142.793 154.953C142.728 155.701 142.914 156.449 143.322 157.08C143.746 157.519 144.289 157.825 144.884 157.961C147.918 158.907 151.118 159.105 154.286 159.303C155.255 159.36 156.326 159.386 157.072 158.773C157.534 158.323 157.878 157.765 158.072 157.15L161.591 148.52C161.328 151.566 161.249 154.625 161.355 157.68C161.304 158.335 161.497 158.986 161.897 159.507C162.409 159.903 163.05 160.094 163.695 160.044C168.578 160.228 173.467 159.872 178.273 158.983C180.134 152.104 180.185 144.828 179.261 137.763C178.898 135.009 178.356 132.205 176.896 129.841C176.539 129.195 176.032 128.645 175.417 128.238C174.497 127.796 173.477 127.604 172.459 127.682C165.078 127.606 157.582 127.433 150.245 128.481C147.956 128.807 146.758 129.522 145.961 131.764C144.813 135.297 144.012 138.935 143.571 142.624C142.985 146.706 142.725 150.829 142.793 154.953Z" fill="#2E2E3F"/>
<path d="M178.273 158.983L177.125 159.181C172.689 159.925 168.189 160.214 163.695 160.044C163.05 160.094 162.409 159.903 161.897 159.507C161.497 158.986 161.304 158.335 161.355 157.68C161.256 154.838 161.32 151.993 161.546 149.159C161.546 149.088 161.546 149.012 161.546 148.941C161.546 148.871 161.546 148.66 161.578 148.52C160.405 151.388 159.239 154.269 158.066 157.137C157.871 157.753 157.527 158.31 157.065 158.76C156.319 159.399 155.248 159.347 154.28 159.29H153.84C150.818 159.098 147.778 158.875 144.916 157.974C144.32 157.84 143.777 157.534 143.354 157.092C142.946 156.462 142.76 155.714 142.825 154.965C142.755 150.831 143.015 146.698 143.602 142.605C144.043 138.933 144.84 135.313 145.98 131.796C146.777 129.554 147.975 128.839 150.264 128.513C157.601 127.465 165.097 127.638 172.478 127.714C173.399 127.661 174.32 127.805 175.181 128.136C175.269 128.174 175.355 128.219 175.436 128.27C176.051 128.677 176.558 129.227 176.915 129.873C178.375 132.237 178.917 135.041 179.28 137.794C180.198 144.828 180.134 152.103 178.273 158.983Z" fill="url(#paint2_linear_1_456)"/>
<path d="M178.273 158.983L177.125 159.181C176.852 159.04 176.586 158.884 176.329 158.715C175.697 158.366 175.166 157.86 174.786 157.246C174.508 156.624 174.373 155.947 174.391 155.266C174.18 149.567 175.264 143.767 174.11 138.203C173.696 136.198 172.867 134.371 172.274 132.454C171.733 130.685 172.944 129.631 174.365 128.621C174.616 128.434 174.883 128.27 175.162 128.13C175.25 128.168 175.336 128.213 175.417 128.264C176.032 128.671 176.539 129.221 176.896 129.867C178.356 132.231 178.897 135.035 179.261 137.788C180.198 144.828 180.134 152.103 178.273 158.983Z" fill="url(#paint3_linear_1_456)"/>
<path d="M161.585 148.533C160.412 151.401 159.245 154.282 158.072 157.15C157.878 157.765 157.534 158.323 157.072 158.773C156.326 159.411 155.255 159.36 154.286 159.303H153.846C153.681 159.214 153.525 159.109 153.381 158.99C152.841 158.532 152.456 157.917 152.28 157.23C152.104 156.543 152.146 155.819 152.399 155.157C152.711 154.52 153.106 153.927 153.572 153.394C156.351 149.823 157.868 145.46 159.347 141.18C160.142 142.103 160.749 143.173 161.132 144.329C161.543 145.69 161.696 147.116 161.585 148.533Z" fill="url(#paint4_linear_1_456)"/>
<path d="M160.15 66.0003C160.12 67.1532 159.666 68.2543 158.875 69.0921C157.703 70.1525 155.924 70.0886 154.452 70.6827C154.266 70.7443 154.098 70.8494 153.961 70.9893C153.852 71.1182 153.775 71.2716 153.738 71.4364C153.549 72.206 153.609 73.0158 153.91 73.7489C154.359 74.8462 155.043 75.8316 155.913 76.6361C156.783 77.4405 157.818 78.0445 158.946 78.4057C161.212 79.117 163.614 79.2855 165.957 78.8976C166.735 78.8521 167.493 78.6339 168.176 78.2588C168.9 77.7059 169.476 76.9816 169.852 76.1507C170.308 75.3924 170.613 74.553 170.751 73.6786C170.814 73.2385 170.761 72.7896 170.598 72.3762C170.435 71.9628 170.167 71.5993 169.82 71.3215C169.495 71.1236 169.149 70.9629 168.788 70.8424C168.22 70.6241 167.676 70.3502 167.162 70.0247C166.635 69.7541 166.225 69.2997 166.008 68.7471C165.919 68.2805 165.939 67.7995 166.066 67.3418C166.356 65.7881 166.356 64.1939 166.066 62.6402C165.997 62.1799 165.855 61.7335 165.645 61.3179C165.449 60.9645 165.174 60.6607 164.843 60.4297C164.511 60.1986 164.131 60.0465 163.732 59.9849C163.333 59.9233 162.926 59.9538 162.54 60.0741C162.155 60.1944 161.802 60.4014 161.508 60.6791C160.004 62.0525 160.329 64.2244 160.15 66.0003Z" fill="#F3BD8F"/>
<path d="M153.094 57.7407C153.008 58.7998 153.096 59.8659 153.355 60.8963C154.107 63.3429 156.689 64.9207 159.245 65.0229C160.084 65.0888 160.925 64.9277 161.68 64.5566C162.113 64.3092 162.511 64.0065 162.866 63.6559C164.651 62.0206 166.295 60.0659 166.837 57.7024C167.022 56.8056 167.099 55.8898 167.067 54.9747C167.089 53.6269 166.856 52.2871 166.378 51.0269C165.901 49.9136 165.146 48.9426 164.184 48.2084C163.222 47.4741 162.087 47.0015 160.89 46.8364C158.423 46.5234 156.109 47.7755 154.305 49.3277C153.4 50.1071 153.534 51.6402 153.419 52.8092C153.26 54.4381 153.151 56.0926 153.094 57.7407Z" fill="#F3BD8F"/>
<path d="M153.4 44.1152C152.711 45.297 152.246 46.6704 151.182 47.52C150.742 47.8649 150.225 48.114 149.818 48.4909C149.293 49.0456 148.987 49.7722 148.956 50.5358C148.926 51.2995 149.173 52.0482 149.652 52.6431C150.155 53.2182 150.807 53.6421 151.537 53.8677C152.266 54.0932 153.043 54.1116 153.782 53.9207C155.263 53.5065 156.529 52.5395 157.32 51.2186C157.849 50.3882 158.321 49.3789 159.233 49.0722C159.637 48.9802 160.057 48.9849 160.459 49.0859C160.861 49.1869 161.233 49.3814 161.546 49.6535C162.216 50.139 162.777 50.7778 163.459 51.2122C163.866 51.4216 164.256 51.663 164.625 51.934C165.722 52.8858 165.556 54.6042 165.301 56.0351C165.76 56.1756 165.849 55.3516 166.251 55.0897C166.652 54.8278 167.118 55.2111 167.188 55.639C167.211 56.0717 167.088 56.4995 166.837 56.8528C165.792 58.6861 164.555 60.4875 164.205 62.5636C164.134 62.8401 164.147 63.1315 164.243 63.4004C164.453 63.72 164.777 63.9481 165.148 64.0392C165.786 64.316 166.474 64.4574 167.169 64.4544C167.516 64.4488 167.857 64.3608 168.164 64.1976C168.471 64.0343 168.735 63.8006 168.934 63.5154C169.131 63.1453 169.25 62.7388 169.285 62.3208C169.372 60.9356 169.559 59.5585 169.846 58.2006C170.617 55.5305 172.906 53.2052 172.568 50.452C172.32 49.2076 171.8 48.0338 171.044 47.0153C170.603 46.2415 170.063 45.5285 169.438 44.8945C168.823 44.3671 168.147 43.9167 167.424 43.553C165.931 42.661 164.297 42.0322 162.592 41.6941C160.571 41.3875 158.767 42.0455 156.791 42.1413C155.236 42.2116 154.267 42.5885 153.4 44.1152Z" fill="#2E2E3F"/>
<path d="M176.52 130.423C175.377 131.219 174.07 131.745 172.695 131.962C165.365 133.591 157.767 133.578 150.442 131.924C148.912 131.573 147.21 131.01 146.547 129.58C146.25 128.794 146.139 127.95 146.222 127.114C146.397 119.218 146.571 111.321 146.745 103.421C146.943 94.4459 147.14 85.4388 148.453 76.5596C148.84 74.7244 149.567 72.9781 150.595 71.4109C151.449 70.2419 155.319 70.8679 158.55 68.7727C159.436 68.1978 157.511 71.1682 160.405 72.3947C163.408 73.6722 166.78 67.6867 168.603 70.0886C169.629 71.4301 172.893 70.4335 173.925 71.7686C174.754 72.8418 175.264 75.1095 175.589 77.8436C176.278 83.6502 176.105 91.533 176.227 94.4011C176.768 104.437 175.927 117.238 179.235 125.523C179.994 127.325 178.011 129.241 176.52 130.423Z" fill="#FDB913"/>
<path d="M176.52 130.423C175.377 131.219 174.07 131.745 172.695 131.962C170.865 132.369 169.013 132.674 167.149 132.876L166.627 132.806C167.991 128.334 168.055 123.632 168.016 118.982C168.016 116.427 167.94 113.84 167.889 111.272C167.857 109.649 167.8 107.944 166.965 106.557C166.13 105.171 164.23 104.29 162.84 105.127C165.231 103.683 167.188 97.576 168.169 95.0719C169.581 91.4443 170.57 87.6652 171.114 83.8099C171.484 81.1653 171.344 76.5149 175.385 77.7669L175.608 77.8436C176.297 83.6502 176.125 91.533 176.246 94.4012C176.788 104.437 175.946 117.238 179.254 125.523C179.994 127.325 178.011 129.241 176.52 130.423Z" fill="url(#paint5_linear_1_456)"/>
<path d="M153.68 202.255C153.911 202.275 154.125 202.382 154.28 202.556C154.377 202.753 154.414 202.975 154.388 203.194C154.388 204.472 155.197 205.628 155.153 206.893C155.121 208.024 154.42 209.084 154.515 210.215C154.515 210.438 154.573 210.7 154.413 210.853C154.31 210.939 154.183 210.992 154.05 211.007C150.85 211.62 147.635 212.154 144.406 212.61C143.81 212.769 143.176 212.701 142.627 212.419C142.379 212.228 142.184 211.978 142.06 211.69C141.187 209.908 141.964 207.723 143.15 206.133C146.05 202.217 148.849 201.278 153.68 202.255Z" fill="#2E2E3F"/>
<path d="M193.96 201.757C193.735 202.775 193.157 203.681 192.328 204.312C190.276 206.212 187.929 207.766 185.38 208.912C184.867 209.2 184.277 209.325 183.691 209.269C183.246 209.14 182.856 208.869 182.581 208.496C182.306 208.123 182.161 207.67 182.168 207.206C182.199 206.279 182.439 205.37 182.869 204.549C184.099 201.7 184.953 197.522 188.236 196.391C191.104 195.427 194.266 198.921 193.96 201.757Z" fill="#2E2E3F"/>
<path d="M153.68 202.255C153.911 202.275 154.125 202.382 154.28 202.556C154.377 202.753 154.414 202.975 154.388 203.194C154.388 204.472 155.197 205.628 155.153 206.893C155.121 208.024 154.42 209.084 154.515 210.215C154.515 210.438 154.573 210.7 154.413 210.853C154.31 210.939 154.183 210.992 154.05 211.007C150.85 211.62 147.635 212.154 144.406 212.61C143.81 212.769 143.176 212.701 142.627 212.419C142.379 212.228 142.184 211.978 142.06 211.69C141.187 209.908 141.964 207.723 143.15 206.133C146.05 202.217 148.849 201.278 153.68 202.255Z" fill="url(#paint6_linear_1_456)"/>
<path d="M192.328 204.325C190.276 206.225 187.929 207.778 185.38 208.924C184.867 209.213 184.277 209.338 183.691 209.282" fill="url(#paint7_linear_1_456)"/>
<path d="M170.267 94.7461C170.377 95.5467 170.292 96.3622 170.018 97.1224C169.559 98.1764 168.494 98.8152 167.468 99.3837L144.858 112.204C143.8 112.805 142.665 113.482 142.213 114.619C141.218 117.174 144.336 119.467 147.045 119.672C149.881 119.883 152.673 119.033 155.363 118.094C163.861 115.158 172.068 111.437 179.879 106.979C180.844 106.62 181.654 105.933 182.166 105.038C182.678 104.143 182.862 103.096 182.684 102.079C182.706 95.8251 182.229 89.579 181.256 83.4011C180.727 80.0218 179.981 76.4893 177.705 73.9277C174.34 70.095 168.195 69.98 167.666 75.595C167.079 81.9702 169.84 88.4731 170.267 94.7461Z" fill="#FDB913"/>
<path d="M170.267 94.7461C170.377 95.5467 170.292 96.3622 170.018 97.1224C169.559 98.1764 168.494 98.8152 167.468 99.3837L144.858 112.204C143.8 112.805 142.665 113.482 142.213 114.619C141.218 117.174 144.336 119.467 147.045 119.672C149.881 119.883 152.673 119.033 155.363 118.094C163.861 115.158 172.068 111.437 179.879 106.979C180.844 106.62 181.654 105.933 182.166 105.038C182.678 104.143 182.862 103.096 182.684 102.079C182.706 95.8251 182.229 89.579 181.256 83.4011C180.727 80.0218 179.981 76.4893 177.705 73.9277C174.34 70.095 168.195 69.98 167.666 75.595C167.079 81.9702 169.84 88.4731 170.267 94.7461Z" fill="url(#paint8_linear_1_456)"/>
<path d="M139.306 114.332C137.675 114.327 136.103 114.943 134.908 116.056C134.326 116.624 133.933 117.359 133.785 118.16C133.636 118.961 133.739 119.788 134.079 120.528C134.321 121.023 134.743 121.407 135.258 121.601C135.713 121.727 136.196 121.711 136.642 121.556C137.916 121.167 138.968 120.177 140.218 119.64C140.52 119.491 140.865 119.453 141.193 119.531C141.404 119.639 141.604 119.765 141.792 119.908C142.054 120.052 142.347 120.132 142.646 120.142C142.945 120.152 143.242 120.092 143.513 119.966C144.053 119.704 144.508 119.294 144.826 118.784C145.288 118.143 145.513 117.362 145.464 116.574C145.336 115.36 144.635 114.97 143.59 114.849C142.155 114.696 140.779 114.28 139.306 114.332Z" fill="#F3BD8F"/>
<path d="M118.302 110.39C117.7 111.131 117.286 112.008 117.098 112.945C116.997 113.389 117.013 113.851 117.142 114.287C117.327 114.711 117.633 115.07 118.023 115.319C118.412 115.567 118.867 115.692 119.329 115.679C120.253 115.64 121.152 115.361 121.936 114.868C123.393 114.027 124.784 113.076 126.098 112.026C126.371 111.84 126.614 111.613 126.819 111.355C127.063 110.955 127.164 110.484 127.105 110.02C127.046 109.555 126.83 109.125 126.494 108.8C124.339 106.634 119.922 108.378 118.302 110.39Z" fill="#F3BD8F"/>
<path d="M97.8661 184.177H44.1427L23.2921 127.261H114.038L97.8661 184.177ZM46.3674 180.983H95.4502L109.812 130.442H27.8561L46.3674 180.983Z" fill="#FDB913"/>
<path d="M119.067 184.177H65.3376L44.4933 127.261H136.795L119.067 184.177ZM67.575 180.983H116.658L131.019 130.442H49.0892L67.575 180.983Z" fill="#FDB913"/>
<path d="M119.386 184.209H93.9395L105.337 143.933L114.746 114.683L140.409 115.028L119.386 184.209ZM98.153 181.015H117.028L136.151 118.164L117.079 117.909L108.371 144.86L98.153 181.015Z" fill="#FDB913"/>
<path d="M119.335 200.115H57.0445V196.921H116.148V182.593H119.335V200.115Z" fill="#FDB913"/>
<path d="M98.4844 200.115H47.7697V196.921H95.2972V182.593H98.4844V200.115Z" fill="#FDB913"/>
<path d="M109.06 208.049C107.989 208.049 106.943 207.731 106.053 207.135C105.163 206.539 104.469 205.692 104.06 204.701C103.65 203.71 103.543 202.62 103.752 201.568C103.961 200.516 104.476 199.549 105.233 198.791C105.99 198.032 106.954 197.516 108.004 197.307C109.054 197.097 110.142 197.205 111.131 197.615C112.119 198.026 112.965 198.721 113.559 199.613C114.154 200.505 114.471 201.553 114.471 202.626C114.471 204.064 113.901 205.444 112.886 206.461C111.871 207.478 110.495 208.049 109.06 208.049ZM109.06 200.384C108.62 200.384 108.189 200.514 107.824 200.759C107.458 201.004 107.173 201.352 107.004 201.76C106.836 202.167 106.792 202.615 106.878 203.048C106.963 203.48 107.175 203.878 107.486 204.189C107.798 204.501 108.194 204.714 108.626 204.8C109.057 204.886 109.504 204.841 109.911 204.673C110.317 204.504 110.665 204.218 110.909 203.852C111.154 203.485 111.284 203.054 111.284 202.613C111.281 202.024 111.045 201.46 110.628 201.045C110.211 200.629 109.647 200.396 109.06 200.396V200.384Z" fill="#2E2E3F"/>
<path d="M70.3988 208.049C69.4198 208.046 68.4601 207.775 67.6223 207.268C66.7845 206.76 66.0999 206.034 65.6418 205.167C65.1836 204.3 64.9691 203.325 65.021 202.345C65.073 201.365 65.3895 200.418 65.9368 199.604C66.4582 198.825 67.1722 198.195 68.0092 197.776C68.8462 197.356 69.7774 197.161 70.7121 197.21C71.6467 197.259 72.5527 197.549 73.3417 198.054C74.1307 198.558 74.7757 199.259 75.2136 200.088C75.6516 200.917 75.8675 201.845 75.8404 202.783C75.8134 203.72 75.5441 204.635 75.059 205.437C74.574 206.239 73.8896 206.901 73.0728 207.359C72.256 207.817 71.3347 208.055 70.3988 208.049ZM68.5566 201.387C68.3109 201.752 68.1791 202.183 68.1778 202.624C68.1764 203.065 68.3057 203.497 68.5491 203.864C68.7926 204.232 69.1394 204.519 69.5455 204.688C69.9517 204.858 70.399 204.904 70.8309 204.819C71.2628 204.734 71.6598 204.522 71.9718 204.211C72.2837 203.9 72.4966 203.503 72.5834 203.071C72.6702 202.638 72.6271 202.19 72.4595 201.782C72.2919 201.374 72.0073 201.025 71.6418 200.78C71.1518 200.452 70.5524 200.332 69.9744 200.446C69.3965 200.56 68.8868 200.898 68.5566 201.387Z" fill="#2E2E3F"/>
<path d="M131.172 138.67H30.425V141.078H131.172V138.67Z" fill="#FDB913"/>
<path d="M128.54 146.763H32.5795V149.171H128.54V146.763Z" fill="#FDB913"/>
<path d="M125.907 154.857H35.6902V157.265H125.907V154.857Z" fill="#FDB913"/>
<path d="M123.274 162.95H38.801V165.359H123.274V162.95Z" fill="#FDB913"/>
<path d="M120.642 171.044H41.9117V173.452H120.642V171.044Z" fill="#FDB913"/>
<path d="M36.8134 128.195L34.5557 129.021L53.9353 182.263L56.193 181.438L36.8134 128.195Z" fill="#FDB913"/>
<path d="M64.8391 128.263L62.5339 128.944L77.9687 181.465L80.274 180.784L64.8391 128.263Z" fill="#FDB913"/>
<path d="M88.4023 127.846L86.0005 127.927L87.7934 181.524L90.1952 181.443L88.4023 127.846Z" fill="#FDB913"/>
<path d="M116.02 129.322L99.8763 181.842L102.173 182.551L118.316 130.031L116.02 129.322Z" fill="#FDB913"/>
</g>
<defs>
<linearGradient id="paint0_linear_1_456" x1="126.219" y1="184.024" x2="124.421" y2="246.971" gradientUnits="userSpaceOnUse">
<stop offset="0.01"/>
<stop offset="0.13" stop-opacity="0.69"/>
<stop offset="1" stop-opacity="0"/>
</linearGradient>
<linearGradient id="paint1_linear_1_456" x1="146.853" y1="106.072" x2="141.456" y2="96.9088" gradientUnits="userSpaceOnUse">
<stop offset="0.01"/>
<stop offset="0.13" stop-opacity="0.69"/>
<stop offset="1" stop-opacity="0"/>
</linearGradient>
<linearGradient id="paint2_linear_1_456" x1="170.139" y1="127.65" x2="154.531" y2="161.916" gradientUnits="userSpaceOnUse">
<stop offset="0.01"/>
<stop offset="0.13" stop-opacity="0.69"/>
<stop offset="1" stop-opacity="0"/>
</linearGradient>
<linearGradient id="paint3_linear_1_456" x1="172.141" y1="143.639" x2="179.854" y2="143.639" gradientUnits="userSpaceOnUse">
<stop offset="0.01"/>
<stop offset="0.13" stop-opacity="0.69"/>
<stop offset="1" stop-opacity="0"/>
</linearGradient>
<linearGradient id="paint4_linear_1_456" x1="153.604" y1="147.587" x2="169.084" y2="161.327" gradientUnits="userSpaceOnUse">
<stop offset="0.01"/>
<stop offset="0.13" stop-opacity="0.69"/>
<stop offset="1" stop-opacity="0"/>
</linearGradient>
<linearGradient id="paint5_linear_1_456" x1="203.955" y1="107.094" x2="131.611" y2="103.029" gradientUnits="userSpaceOnUse">
<stop offset="0.01"/>
<stop offset="0.13" stop-opacity="0.69"/>
<stop offset="1" stop-opacity="0"/>
</linearGradient>
<linearGradient id="paint6_linear_1_456" x1="141.684" y1="207.276" x2="155.159" y2="207.276" gradientUnits="userSpaceOnUse">
<stop offset="0.01"/>
<stop offset="0.13" stop-opacity="0.69"/>
<stop offset="1" stop-opacity="0"/>
</linearGradient>
<linearGradient id="paint7_linear_1_456" x1="183.691" y1="206.816" x2="192.328" y2="206.816" gradientUnits="userSpaceOnUse">
<stop offset="0.01"/>
<stop offset="0.13" stop-opacity="0.69"/>
<stop offset="1" stop-opacity="0"/>
</linearGradient>
<linearGradient id="paint8_linear_1_456" x1="172.262" y1="118.784" x2="160.916" y2="96.861" gradientUnits="userSpaceOnUse">
<stop offset="0.01"/>
<stop offset="0.13" stop-opacity="0.69"/>
<stop offset="1" stop-opacity="0"/>
</linearGradient>
<clipPath id="clip0_1_456">
<rect width="245" height="246" fill="white"/>
</clipPath>
</defs>
</svg>
