<svg width="312" height="232" viewBox="0 0 312 232" fill="none" xmlns="http://www.w3.org/2000/svg">
<g clip-path="url(#clip0_7_143)">
<path opacity="0.19" d="M303.798 135.366C294.315 152.957 275.488 165.859 255.527 165.736C248.356 165.687 241.142 164.059 234.057 165.263C229.149 166.105 224.536 168.286 219.948 170.332C196.508 180.832 168.21 188.051 146.016 175.118C132.999 167.53 122.92 153.442 107.983 151.838C98.702 150.843 89.7642 155.033 81.1025 158.523C68.6374 163.543 54.8535 167.328 41.8793 163.838C28.2304 160.151 18.0964 149.135 11.3363 136.417C9.64152 133.236 8.14593 129.953 6.85823 126.586C-3.61313 99.3127 -2.88314 66.4174 14.4403 42.904C27.5188 25.1108 48.2529 14.6167 69.1098 7.4896C116.989 -8.86591 163.714 7.09024 213.004 4.30083C226.358 3.54511 240.222 2.31015 252.699 7.1271C262.631 10.9549 270.789 18.3093 278.034 26.1123C291.628 40.7536 303.038 57.8648 308.559 77.0773C310.558 84.0178 311.697 91.1782 311.951 98.3972C312.38 111.238 309.871 124.098 303.798 135.366Z" fill="#FDB913"/>
<path opacity="0.19" d="M303.798 135.366C294.315 152.957 275.488 165.859 255.527 165.736C248.356 165.687 241.142 164.059 234.057 165.263C229.149 166.105 224.536 168.286 219.948 170.332C196.508 180.832 168.21 188.052 146.016 175.118C132.999 167.53 122.92 153.442 107.983 151.838C98.7019 150.843 89.7642 155.033 81.1024 158.523C68.6374 163.543 54.8535 167.328 41.8793 163.838C28.2303 160.151 18.0964 149.135 11.3363 136.417C16.5076 134.045 22.691 135.299 28.4144 136.11C45.7502 138.549 63.4221 136.213 79.532 129.351C96.6408 122.015 114.498 109.844 133.981 114.28C152.997 118.581 171.045 133.265 191.386 130.254C198.962 129.136 205.826 125.167 211.93 120.547C225.591 110.2 236.376 96.3329 250.478 86.6007C264.581 76.8685 284.334 72.0085 298.547 81.581C304.596 85.6545 308.792 91.7494 311.945 98.4218C312.38 111.238 309.871 124.098 303.798 135.366Z" fill="#FDB913"/>
<path d="M231.345 68.4142L246.51 92.3761L235.008 99.4233L219.942 102.71L231.345 68.4142Z" fill="#FDB913"/>
<path d="M231.345 68.4142L246.51 92.3761L235.008 99.4233L219.942 102.71L231.345 68.4142Z" fill="url(#paint0_linear_7_143)"/>
<path d="M126.503 169.539C126.669 169.57 133.343 214.293 133.343 214.293C133.343 214.293 138.195 215.46 138.023 214.293C137.851 213.125 138.692 198.822 139.686 195.996C140.679 193.17 137.845 169.539 137.845 169.539H126.503Z" fill="url(#paint1_linear_7_143)"/>
<path d="M148.157 169.238C148.157 169.238 149.157 191.836 151.145 197.501C153.132 203.166 155.629 214.821 155.629 214.821H161.763L160.635 168.765C160.635 168.765 153.641 164.126 148.157 169.238Z" fill="url(#paint2_linear_7_143)"/>
<path d="M132.073 211.282C133.594 211.086 135.14 211.737 136.655 211.571C137.288 211.422 137.938 211.358 138.588 211.38C138.689 211.388 138.785 211.431 138.858 211.503C138.914 211.591 138.938 211.695 138.925 211.798V213.826C138.925 214.803 138.925 215.872 138.312 216.64C137.698 217.408 136.557 217.684 135.533 217.77C135.202 217.821 134.864 217.794 134.545 217.69C134.234 217.538 133.962 217.318 133.748 217.045C133.067 216.302 132.551 215.872 132.459 214.87C132.447 214.551 132.122 211.282 132.073 211.282Z" fill="#FDB913"/>
<path d="M161.279 212.173C161.383 212.149 161.492 212.151 161.596 212.179C161.699 212.208 161.794 212.262 161.871 212.336C161.949 212.411 162.006 212.503 162.039 212.606C162.071 212.708 162.078 212.817 162.058 212.923C162.132 214.377 162.038 215.834 161.775 217.267C161.744 217.651 161.639 218.026 161.469 218.372C161.027 219.147 160.039 219.38 159.156 219.429C157.813 219.515 156.291 219.263 155.476 218.2C155.076 217.541 154.83 216.8 154.758 216.032C154.617 215.233 154.335 214.465 154.206 213.672C154.089 212.99 154.267 212.658 154.96 212.56C155.936 212.413 156.954 212.394 157.942 212.333C159.064 212.247 160.174 212.198 161.279 212.173Z" fill="#FDB913"/>
<path d="M121.221 228.479C121.156 228.859 121.194 229.25 121.332 229.61C121.495 229.922 121.721 230.197 121.995 230.417C122.27 230.637 122.587 230.797 122.927 230.888C125.159 231.656 131.993 226.993 134.152 226.04C136.052 225.24 137.87 224.259 139.581 223.11C139.753 222.987 139.305 216.966 139.183 216.05C139.184 215.981 139.172 215.912 139.147 215.848C139.122 215.783 139.084 215.725 139.035 215.675C138.946 215.622 138.845 215.592 138.741 215.589C137.71 215.503 136.674 215.589 135.637 215.589C135.107 215.597 134.576 215.575 134.048 215.522C133.575 215.387 133.09 215.298 132.6 215.257C131.815 215.343 130.306 217.813 129.625 218.194C121.841 222.563 121.43 227.017 121.221 228.479Z" fill="#25233A"/>
<path d="M154.138 221.432C153.989 222.016 153.939 222.62 153.991 223.22C154.169 224.148 154.972 224.811 155.727 225.383C157.107 226.421 164.628 233.948 169.002 231.527C169.277 231.339 169.49 231.074 169.615 230.765C169.775 230.412 169.869 230.033 169.891 229.647C170.046 227.963 169.68 226.273 168.842 224.805C168.094 223.515 163.604 219.577 163.15 218.157C162.874 217.297 162.788 216.247 162.021 215.761C161.917 215.686 161.793 215.645 161.665 215.645C161.471 215.67 161.289 215.753 161.144 215.884C159.806 216.781 158.076 216.548 156.543 216.327C156.095 216.259 155.144 215.712 154.776 215.958C154.23 216.339 154.298 217.863 154.273 218.415C154.287 219.423 154.242 220.43 154.138 221.432Z" fill="#25233A"/>
<path d="M164.002 64.4144C164.002 64.4144 184.822 51.4258 185.154 51.1432C185.485 50.8606 206.526 33.7309 208.924 31.3286C211.323 28.9263 213.151 24.8404 216.506 26.1676C219.862 27.4947 219.935 32.7356 215.66 37.5095C215.151 38.0809 211.82 38.0072 211.697 38.1608C211.409 38.5049 210.789 39.1746 208.93 41.2328C207.072 43.2911 195.692 55.6529 189.08 58.8233C182.467 61.9936 169.658 75.6519 169.658 75.6519L164.002 64.4144Z" fill="url(#paint3_linear_7_143)"/>
<path d="M119.639 66.1102C118.798 67.0932 100.186 56.5992 100.186 56.5992L78.2193 34.2286C78.2193 34.2286 74.4405 30.9293 71.7598 35.4574C69.0791 39.9856 75.8146 44.4032 75.8146 44.4032L80.213 45.1159C80.213 45.1159 90.8745 62.8723 93.5062 63.7632C96.1378 64.654 115.437 80.3521 115.621 78.3C115.805 76.2479 119.639 66.1102 119.639 66.1102Z" fill="url(#paint4_linear_7_143)"/>
<path d="M128.779 45.9822C128.202 51.8313 129.245 58.129 133.073 62.5712C133.975 63.6279 135.073 64.6724 135.232 66.0548C135.253 66.7373 135.21 67.4203 135.103 68.0947C135.054 68.4324 135.075 68.7767 135.166 69.1057C135.257 69.4347 135.415 69.7411 135.631 70.0055C135.747 70.1266 135.888 70.2205 136.045 70.2803C136.202 70.3402 136.37 70.3645 136.537 70.3516C136.704 70.3387 136.866 70.2888 137.012 70.2056C137.158 70.1224 137.283 70.0079 137.379 69.8703L138.937 73.1697C139.048 73.4887 139.264 73.7599 139.551 73.9377C139.82 74.0238 140.109 74.0238 140.379 73.9377C142.12 73.6166 143.773 72.9252 145.225 71.9101C145.403 71.759 145.613 71.6498 145.838 71.5907C146.851 71.4309 147.065 73.1574 148.041 73.5322C148.777 73.8209 149.525 73.182 150.059 72.5983L152.181 70.2943C152.543 71.0641 153.171 71.6771 153.948 72.0207C154.183 71.3672 154.503 70.7475 154.899 70.1775C154.814 71.3182 154.935 72.4649 155.255 73.5629L156.328 72.2296C156.426 72.1006 156.555 71.9593 156.721 71.9716C156.832 71.9922 156.933 72.0483 157.009 72.1313L158.764 73.6858C157.856 71.0008 158.261 68.064 158.899 65.3114C159.536 62.5589 160.401 59.7818 160.395 56.9801C160.395 53.3489 158.948 49.8959 157.537 46.5351C156.962 44.9775 156.178 43.5057 155.206 42.1606C153.77 40.3174 151.721 39.15 149.685 38.0748C147.946 37.0543 146.042 36.3473 144.059 35.9858C142.507 35.8373 140.943 35.8889 139.403 36.1394C137.768 36.336 136.122 36.5408 134.465 36.7538C133.042 36.9565 132.404 37.0364 131.496 38.1546C129.711 40.4034 129.049 43.2419 128.779 45.9822Z" fill="#25233A"/>
<path d="M155.114 54.0186C155.208 54.5257 155.128 55.0497 154.887 55.5055C154.645 55.9576 154.371 56.391 154.065 56.8019C153.825 57.1932 153.552 57.5632 153.249 57.9078C152.942 58.2564 152.514 58.4758 152.053 58.5222C150.323 58.5775 150.997 55.6775 151.574 54.7682C152.206 53.7053 154.592 51.8866 155.114 54.0186Z" fill="url(#paint5_linear_7_143)"/>
<path d="M152.721 55.2229C152.858 55.0194 152.975 54.8034 153.071 54.5778C153.167 54.3486 153.332 54.1553 153.543 54.0248C153.648 53.9621 153.771 53.9365 153.892 53.9521C154.014 53.9677 154.126 54.0236 154.212 54.1108C154.408 54.3566 154.279 54.7252 154.126 54.9833C153.77 55.5977 153.782 56.593 153.224 57.0477C152.941 57.2394 152.637 57.3962 152.316 57.5146C151.913 57.6141 151.492 57.6141 151.089 57.5146C150.924 57.3917 151.298 56.5623 151.28 56.3534C151.261 56.1445 151.28 55.8373 151.347 55.739C151.415 55.6407 151.709 55.739 151.832 55.739C152.007 55.7187 152.177 55.6624 152.33 55.5736C152.483 55.4849 152.616 55.3655 152.721 55.2229Z" fill="url(#paint6_linear_7_143)"/>
<path d="M45.5047 73.4216L29.4388 92.8553L53.3322 114.12L60.1229 107.976L62.3988 75.3324C62.4846 74.4231 45.5047 73.4216 45.5047 73.4216Z" fill="#FDB913"/>
<path d="M45.5047 73.4216L29.4388 92.8553L53.3322 114.12L60.1229 107.976L62.3988 75.3324C62.4846 74.4231 45.5047 73.4216 45.5047 73.4216Z" fill="url(#paint7_linear_7_143)"/>
<path d="M170.173 74.6197C170.106 75.0085 169.927 75.3693 169.658 75.658C168.664 77.034 167.569 78.334 166.382 79.5472C164.542 81.3351 162.279 82.7729 161.058 85.0277C159.316 88.2534 160.659 118.009 160.788 123.311C160.825 124.829 137.312 125.769 127.006 124.645C127.141 119.195 130.251 109.708 129.135 104.369C128.233 100.068 127.552 102.489 125.221 95.4788C124.264 92.6157 124.975 89.1627 125.485 86.1828C125.822 84.1737 116.798 80.5426 115.621 78.3184C115.692 76.8711 115.884 75.4324 116.197 74.0176C116.73 71.5939 117.603 69.2583 118.792 67.0809C118.965 66.675 119.259 66.3319 119.632 66.0979C120.083 65.9309 120.576 65.9136 121.037 66.0487C124.588 66.6912 128.059 67.7214 131.386 69.1207C134.502 70.4233 137.741 69.8642 141.023 69.4218C149.177 68.3222 157.11 65.9549 164.536 62.4053C166.319 66.1327 168.102 69.858 169.885 73.5813C170.072 73.8953 170.172 74.2539 170.173 74.6197Z" fill="#FDB913"/>
<path d="M170.173 74.6197C170.106 75.0086 169.927 75.3693 169.658 75.658C168.664 77.0341 167.569 78.3341 166.382 79.5472C164.542 81.3352 162.279 82.7729 161.058 85.0278C159.316 88.2534 160.659 118.009 160.788 123.311C160.819 124.626 143.188 125.505 131.766 124.989L150.918 123.52C150.918 123.52 159.04 94.975 157.003 87.3686C155.163 80.4934 163.137 72.5061 168.094 69.8642L169.891 73.6182C170.07 73.922 170.167 74.2671 170.173 74.6197Z" fill="url(#paint8_linear_7_143)"/>
<path d="M140.955 65.078C140.888 64.1932 140.759 63.2347 141.201 62.4729C141.697 61.8109 142.391 61.3245 143.182 61.0843C144.642 60.4699 146.44 59.8862 147.703 60.8386C148.387 61.4505 148.834 62.2833 148.967 63.1917C149.345 65.0921 149.455 67.0363 149.292 68.9672C149.194 70.6629 148.967 72.4631 147.875 73.7595C147.134 74.5298 146.256 75.1549 145.286 75.6027C143.974 76.3032 142.256 76.9729 141.115 76.0144C137.704 73.1943 141.213 68.6599 140.955 65.078Z" fill="url(#paint9_linear_7_143)"/>
<path d="M127.006 124.645L119.313 171.1C119.313 171.1 127.19 172.55 145.403 170.418C155.586 169.232 162.953 169.582 167.487 170.123C168.074 170.194 168.671 170.119 169.223 169.907C169.776 169.695 170.269 169.351 170.659 168.905C171.05 168.459 171.326 167.925 171.463 167.348C171.601 166.771 171.596 166.169 171.449 165.595L160.806 123.311C160.806 123.311 129.613 120.264 127.006 124.645Z" fill="#FDB913"/>
<path d="M167.468 170.123C165.597 169.896 163.242 169.711 160.401 169.65C155.39 169.56 150.379 169.816 145.403 170.418C127.19 172.55 119.313 171.1 119.313 171.1L127.006 124.645C128.656 121.868 141.784 122.077 151.175 122.599H151.292C156.132 122.869 159.954 123.213 160.665 123.293H160.788V123.33L160.953 123.993L171.419 165.577C171.568 166.151 171.576 166.754 171.441 167.332C171.305 167.91 171.031 168.446 170.642 168.894C170.253 169.342 169.76 169.688 169.207 169.903C168.654 170.117 168.057 170.192 167.468 170.123Z" fill="url(#paint10_linear_7_143)"/>
<path d="M71.3611 39.1377L58.4421 65.9013H59.6138L71.7598 39.8381C71.7598 39.8381 71.9929 39.1377 71.3611 39.1377Z" fill="#FDB913"/>
<path d="M71.7598 67.0502L75.8146 44.4339L76.7532 44.5875L72.7659 67.978C72.7659 67.978 71.8273 68.789 71.7598 67.0502Z" fill="#FDB913"/>
<path d="M45.7808 64.5926C45.7808 64.5926 68.4779 61.3731 79.8265 72.1313L82.7281 75.2771L73.1155 100.468C73.1155 100.468 67.8032 104.216 62.6871 103.159C57.571 102.102 48.0382 99.6138 48.0382 99.6138C48.0382 99.6138 44.971 98.6307 44.971 93.9428C44.971 89.2549 45.7808 64.5926 45.7808 64.5926Z" fill="#FDB913"/>
<path d="M45.7808 64.5926C45.7808 64.5926 68.4779 61.3731 79.8265 72.1313L82.7281 75.2771L73.1155 100.468C73.1155 100.468 67.8032 104.216 62.6871 103.159C57.571 102.102 48.0382 99.6138 48.0382 99.6138C48.0382 99.6138 44.971 98.6307 44.971 93.9428C44.971 89.2549 45.7808 64.5926 45.7808 64.5926Z" fill="url(#paint11_linear_7_143)"/>
<path d="M211.697 38.1608L206.74 71.7627H207.464L212.439 38.1608H211.697Z" fill="#FDB913"/>
<path d="M215.66 37.5095L221.408 65.2868L222.481 65.0964L216.224 36.8275L215.66 37.5095Z" fill="#FDB913"/>
<path d="M202.299 74.3371C202.299 74.3371 216.408 62.3131 228.309 65.2868H232.161C232.161 65.2868 229.824 88.0875 230.603 93.7523C231.382 99.4171 213.758 105.358 212.433 105.045C211.108 104.732 206.121 105.358 205.495 98.0163C204.869 90.6741 202.299 74.3371 202.299 74.3371Z" fill="#FDB913"/>
<path d="M202.299 74.3371C202.299 74.3371 216.408 62.3131 228.309 65.2868H232.161C232.161 65.2868 229.824 88.0875 230.603 93.7523C231.382 99.4171 213.758 105.358 212.433 105.045C211.108 104.732 206.121 105.358 205.495 98.0163C204.869 90.6741 202.299 74.3371 202.299 74.3371Z" fill="url(#paint12_linear_7_143)"/>
<path d="M71.7598 39.8382L69.4778 71.7873H70.6188L72.4591 39.8382C72.4591 39.8382 71.9684 38.9964 71.7598 39.8382Z" fill="#FDB913"/>
<path d="M73.5204 42.4862L80.2191 71.1851L81.6607 70.7796L74.3669 43.2972L73.5204 42.4862Z" fill="#FDB913"/>
<path d="M62.6626 71.5846L70.625 71.7627L86.9853 69.8888L95.3894 102.237L72.4837 114.102L59.853 111.902L62.6626 71.5846Z" fill="#FDB913"/>
<path d="M72.4837 114.101L70.625 71.7627L62.6626 71.5845L59.853 111.902L72.4837 114.101Z" fill="url(#paint13_linear_7_143)"/>
<path d="M209.587 78.3553L213.531 79.0619L220.408 80.6225L234.505 73.9008L222.481 72.2972L209.587 78.3553Z" fill="#FDB913"/>
<path d="M209.587 78.3553L213.531 79.0619L220.408 80.6225L234.505 73.9008L222.481 72.2972L209.587 78.3553Z" fill="url(#paint14_linear_7_143)"/>
<path d="M234.505 73.9009L220.408 80.6225L209.587 78.3553L210.955 108.639L220.408 111.902L235.093 103.952L234.505 73.9009Z" fill="#FDB913"/>
<path d="M135.312 61.1765C137.06 64.4513 140.833 66.9581 144.434 65.9811C147.114 65.25 148.991 62.8108 150.139 60.2795C151.124 57.9399 151.857 55.501 152.322 53.0049C152.844 50.6148 153.304 48.1449 152.85 45.7426C152.331 43.4168 150.999 41.3533 149.095 39.9247C147.19 38.4961 144.839 37.7964 142.465 37.9519C131.803 38.9841 131.466 53.9511 135.312 61.1765Z" fill="url(#paint15_linear_7_143)"/>
<path d="M140.532 30.5483C144.863 29.6267 149.734 30.407 153.034 33.3377C156.334 36.2684 157.862 41.1161 161.401 43.9178C162.542 44.821 164.045 45.5029 165.438 45.0729C165.051 45.8908 164.445 46.5846 163.686 47.0763C162.927 47.5679 162.047 47.838 161.144 47.8561C161.737 48.4637 162.49 48.8899 163.315 49.0849C162.858 49.6759 162.277 50.16 161.614 50.5038C160.951 50.8475 160.221 51.0427 159.475 51.0756C159.847 51.3616 160.101 51.7751 160.187 52.2368C158.696 53.0048 156.911 52.9311 155.279 52.5809C153.9 52.2795 152.597 51.6996 151.45 50.8767C150.302 50.0538 149.334 49.005 148.605 47.7947C145.108 41.6076 138.986 37.0794 134.103 44.8332C132.582 43.8195 130.963 42.6521 130.711 40.8457C129.999 35.4881 136.042 31.5006 140.532 30.5483Z" fill="#25233A"/>
<path d="M212.439 38.1608V79.0619H213.531L212.985 38.0318L212.439 38.1608Z" fill="#FDB913"/>
<path d="M214.329 37.9089L225.456 74.3371H226.487L215.108 37.7737L214.329 37.9089Z" fill="#FDB913"/>
<path d="M220.408 80.6225V111.902L214.329 107.718L213.531 79.0619L220.408 80.6225Z" fill="url(#paint16_linear_7_143)"/>
<path d="M210.955 108.639L214.329 107.718L213.531 79.0618L209.587 78.3553L210.955 108.639Z" fill="url(#paint17_linear_7_143)"/>
<path d="M234.505 73.9009L220.408 80.6225V111.902L226.487 108.615L234.505 73.9009Z" fill="url(#paint18_linear_7_143)"/>
<path d="M125.485 86.189C125.822 84.1799 116.798 80.5487 115.621 78.3246C115.692 76.8773 115.884 75.4385 116.197 74.0237C116.197 74.0237 125.73 78.1956 126.251 80.6163C126.773 83.0371 125.485 86.189 125.485 86.189Z" fill="url(#paint19_linear_7_143)"/>
<path d="M167.468 170.123C165.597 169.896 163.242 169.711 160.401 169.65L153.04 143.587C153.04 143.587 150.636 124.62 151.2 122.599H151.316L160.69 123.293H160.812V123.33L160.978 123.993L171.443 165.576C171.594 166.153 171.602 166.758 171.465 167.339C171.328 167.919 171.052 168.457 170.66 168.906C170.268 169.354 169.772 169.7 169.215 169.912C168.659 170.124 168.059 170.197 167.468 170.123Z" fill="url(#paint20_linear_7_143)"/>
</g>
<defs>
<linearGradient id="paint0_linear_7_143" x1="242.007" y1="74.2265" x2="226.079" y2="106.039" gradientUnits="userSpaceOnUse">
<stop stop-opacity="0"/>
<stop offset="0.88" stop-opacity="0.8"/>
<stop offset="0.97"/>
</linearGradient>
<linearGradient id="paint1_linear_7_143" x1="126.503" y1="192.174" x2="139.9" y2="192.174" gradientUnits="userSpaceOnUse">
<stop stop-color="#ECC4D7"/>
<stop offset="0.42" stop-color="#EFD4D1"/>
<stop offset="1" stop-color="#F2EAC9"/>
</linearGradient>
<linearGradient id="paint2_linear_7_143" x1="148.157" y1="190.822" x2="161.776" y2="190.822" gradientUnits="userSpaceOnUse">
<stop stop-color="#ECC4D7"/>
<stop offset="0.42" stop-color="#EFD4D1"/>
<stop offset="1" stop-color="#F2EAC9"/>
</linearGradient>
<linearGradient id="paint3_linear_7_143" x1="164.002" y1="50.7807" x2="218.954" y2="50.7807" gradientUnits="userSpaceOnUse">
<stop stop-color="#ECC4D7"/>
<stop offset="0.42" stop-color="#EFD4D1"/>
<stop offset="1" stop-color="#F2EAC9"/>
</linearGradient>
<linearGradient id="paint4_linear_7_143" x1="71.1341" y1="55.7943" x2="119.639" y2="55.7943" gradientUnits="userSpaceOnUse">
<stop stop-color="#ECC4D7"/>
<stop offset="0.42" stop-color="#EFD4D1"/>
<stop offset="1" stop-color="#F2EAC9"/>
</linearGradient>
<linearGradient id="paint5_linear_7_143" x1="150.918" y1="55.7635" x2="155.132" y2="55.7635" gradientUnits="userSpaceOnUse">
<stop stop-color="#ECC4D7"/>
<stop offset="0.42" stop-color="#EFD4D1"/>
<stop offset="1" stop-color="#F2EAC9"/>
</linearGradient>
<linearGradient id="paint6_linear_7_143" x1="152.181" y1="55.5792" x2="160.927" y2="59.311" gradientUnits="userSpaceOnUse">
<stop stop-color="#ECC4D7"/>
<stop offset="0.42" stop-color="#EFD4D1"/>
<stop offset="1" stop-color="#F2EAC9"/>
</linearGradient>
<linearGradient id="paint7_linear_7_143" x1="29.721" y1="98.7659" x2="64.2763" y2="90.0243" gradientUnits="userSpaceOnUse">
<stop stop-opacity="0"/>
<stop offset="0.88" stop-opacity="0.8"/>
<stop offset="0.97"/>
</linearGradient>
<linearGradient id="paint8_linear_7_143" x1="126.503" y1="85.8941" x2="194.943" y2="119.484" gradientUnits="userSpaceOnUse">
<stop stop-opacity="0"/>
<stop offset="0.88" stop-opacity="0.8"/>
<stop offset="0.97"/>
</linearGradient>
<linearGradient id="paint9_linear_7_143" x1="143.937" y1="67.8612" x2="151.896" y2="77.704" gradientUnits="userSpaceOnUse">
<stop stop-color="#ECC4D7"/>
<stop offset="0.42" stop-color="#EFD4D1"/>
<stop offset="1" stop-color="#F2EAC9"/>
</linearGradient>
<linearGradient id="paint10_linear_7_143" x1="63.9446" y1="151.746" x2="175.174" y2="144.85" gradientUnits="userSpaceOnUse">
<stop stop-opacity="0"/>
<stop offset="0.88" stop-opacity="0.8"/>
<stop offset="0.97"/>
</linearGradient>
<linearGradient id="paint11_linear_7_143" x1="44.5907" y1="75.658" x2="74.0911" y2="90.3849" gradientUnits="userSpaceOnUse">
<stop stop-opacity="0"/>
<stop offset="0.88" stop-opacity="0.8"/>
<stop offset="0.97"/>
</linearGradient>
<linearGradient id="paint12_linear_7_143" x1="206.808" y1="69.8273" x2="227.572" y2="92.8042" gradientUnits="userSpaceOnUse">
<stop stop-opacity="0"/>
<stop offset="0.88" stop-opacity="0.8"/>
<stop offset="0.97"/>
</linearGradient>
<linearGradient id="paint13_linear_7_143" x1="46.02" y1="82.0602" x2="90.9588" y2="104.84" gradientUnits="userSpaceOnUse">
<stop stop-opacity="0"/>
<stop offset="0.88" stop-opacity="0.8"/>
<stop offset="0.97"/>
</linearGradient>
<linearGradient id="paint14_linear_7_143" x1="222.046" y1="60.8938" x2="222.046" y2="87.8847" gradientUnits="userSpaceOnUse">
<stop stop-opacity="0"/>
<stop offset="0.88" stop-opacity="0.8"/>
<stop offset="0.97"/>
</linearGradient>
<linearGradient id="paint15_linear_7_143" x1="144.931" y1="39.5678" x2="140.076" y2="64.6512" gradientUnits="userSpaceOnUse">
<stop stop-color="#ECC4D7"/>
<stop offset="0.42" stop-color="#EFD4D1"/>
<stop offset="1" stop-color="#F2EAC9"/>
</linearGradient>
<linearGradient id="paint16_linear_7_143" x1="228.536" y1="90.7541" x2="204" y2="100.76" gradientUnits="userSpaceOnUse">
<stop stop-opacity="0"/>
<stop offset="0.88" stop-opacity="0.8"/>
<stop offset="0.97"/>
</linearGradient>
<linearGradient id="paint17_linear_7_143" x1="219.733" y1="87.4854" x2="202.268" y2="99.9195" gradientUnits="userSpaceOnUse">
<stop stop-opacity="0"/>
<stop offset="0.88" stop-opacity="0.8"/>
<stop offset="0.97"/>
</linearGradient>
<linearGradient id="paint18_linear_7_143" x1="211.396" y1="76.0882" x2="265.025" y2="132.056" gradientUnits="userSpaceOnUse">
<stop stop-color="white" stop-opacity="0"/>
<stop offset="0.84" stop-color="white" stop-opacity="0.84"/>
<stop offset="0.97" stop-color="white"/>
</linearGradient>
<linearGradient id="paint19_linear_7_143" x1="132.459" y1="73.3172" x2="108.375" y2="87.354" gradientUnits="userSpaceOnUse">
<stop stop-opacity="0"/>
<stop offset="0.88" stop-opacity="0.8"/>
<stop offset="0.97"/>
</linearGradient>
<linearGradient id="paint20_linear_7_143" x1="134.128" y1="147.961" x2="171.947" y2="145.616" gradientUnits="userSpaceOnUse">
<stop stop-opacity="0"/>
<stop offset="0.88" stop-opacity="0.8"/>
<stop offset="0.97"/>
</linearGradient>
<clipPath id="clip0_7_143">
<rect width="312" height="232" fill="white"/>
</clipPath>
</defs>
</svg>
